<?xml version="1.0" encoding="UTF-8" standalone="no"?>
<!DOCTYPE svg PUBLIC "-//W3C//DTD SVG 1.1//EN"
 "http://www.w3.org/Graphics/SVG/1.1/DTD/svg11.dtd">
<!-- Generated by graphviz version 3.0.0 (0)
 -->
<!-- Title: src/CGem.cpp Pages: 1 -->
<svg width="138pt" height="196pt"
 viewBox="0.00 0.00 137.50 196.00" xmlns="http://www.w3.org/2000/svg" xmlns:xlink="http://www.w3.org/1999/xlink">
<g id="graph0" class="graph" transform="scale(1 1) rotate(0) translate(4 192)">
<title>src/CGem.cpp</title>
<polygon fill="white" stroke="transparent" points="-4,4 -4,-192 133.5,-192 133.5,4 -4,4"/>
<!-- Node1 -->
<g id="node1" class="node">
<title>Node1</title>
<g id="a_node1"><a xlink:title=" ">
<polygon fill="#bfbfbf" stroke="black" points="1.5,-168.5 1.5,-187.5 85.5,-187.5 85.5,-168.5 1.5,-168.5"/>
<text text-anchor="middle" x="43.5" y="-175.5" font-family="Helvetica,sans-Serif" font-size="10.00">src/CGem.cpp</text>
</a>
</g>
</g>
<!-- Node2 -->
<g id="node2" class="node">
<title>Node2</title>
<g id="a_node2"><a xlink:href="matrix_8h.html" target="_top" xlink:title=" ">
<polygon fill="white" stroke="black" points="4.5,-56.5 4.5,-75.5 62.5,-75.5 62.5,-56.5 4.5,-56.5"/>
<text text-anchor="middle" x="33.5" y="-63.5" font-family="Helvetica,sans-Serif" font-size="10.00">matrix.h</text>
</a>
</g>
</g>
<!-- Node1&#45;&gt;Node2 -->
<g id="edge1" class="edge">
<title>Node1&#45;&gt;Node2</title>
<path fill="none" stroke="midnightblue" d="M33.06,-168.24C24.08,-159.97 11.75,-146.66 6.5,-132 0.54,-115.36 9.93,-96.78 19.23,-83.76"/>
<polygon fill="midnightblue" stroke="midnightblue" points="22.1,-85.77 25.46,-75.72 16.57,-81.48 22.1,-85.77"/>
</g>
<!-- Node4 -->
<g id="node4" class="node">
<title>Node4</title>
<g id="a_node4"><a xlink:title=" ">
<polygon fill="white" stroke="#bfbfbf" points="69.5,-0.5 69.5,-19.5 129.5,-19.5 129.5,-0.5 69.5,-0.5"/>
<text text-anchor="middle" x="99.5" y="-7.5" font-family="Helvetica,sans-Serif" font-size="10.00">iostream</text>
</a>
</g>
</g>
<!-- Node1&#45;&gt;Node4 -->
<g id="edge6" class="edge">
<title>Node1&#45;&gt;Node4</title>
<path fill="none" stroke="midnightblue" d="M53.07,-168.35C61.71,-159.96 74.04,-146.39 80.5,-132 95.69,-98.17 99,-54.28 99.57,-29.74"/>
<polygon fill="midnightblue" stroke="midnightblue" points="103.07,-29.68 99.67,-19.65 96.07,-29.61 103.07,-29.68"/>
</g>
<!-- Node5 -->
<g id="node5" class="node">
<title>Node5</title>
<g id="a_node5"><a xlink:href="CGem_8h.html" target="_top" xlink:title=" ">
<polygon fill="white" stroke="black" points="15.5,-112.5 15.5,-131.5 71.5,-131.5 71.5,-112.5 15.5,-112.5"/>
<text text-anchor="middle" x="43.5" y="-119.5" font-family="Helvetica,sans-Serif" font-size="10.00">CGem.h</text>
</a>
</g>
</g>
<!-- Node1&#45;&gt;Node5 -->
<g id="edge4" class="edge">
<title>Node1&#45;&gt;Node5</title>
<path fill="none" stroke="midnightblue" d="M43.5,-168.08C43.5,-161.01 43.5,-150.86 43.5,-141.99"/>
<polygon fill="midnightblue" stroke="midnightblue" points="47,-141.75 43.5,-131.75 40,-141.75 47,-141.75"/>
</g>
<!-- Node3 -->
<g id="node3" class="node">
<title>Node3</title>
<g id="a_node3"><a xlink:title=" ">
<polygon fill="white" stroke="#bfbfbf" points="0,-0.5 0,-19.5 51,-19.5 51,-0.5 0,-0.5"/>
<text text-anchor="middle" x="25.5" y="-7.5" font-family="Helvetica,sans-Serif" font-size="10.00">math.h</text>
</a>
</g>
</g>
<!-- Node2&#45;&gt;Node3 -->
<g id="edge2" class="edge">
<title>Node2&#45;&gt;Node3</title>
<path fill="none" stroke="midnightblue" d="M32.18,-56.08C31.12,-48.93 29.59,-38.64 28.27,-29.69"/>
<polygon fill="midnightblue" stroke="midnightblue" points="31.72,-29.13 26.8,-19.75 24.8,-30.16 31.72,-29.13"/>
</g>
<!-- Node2&#45;&gt;Node4 -->
<g id="edge3" class="edge">
<title>Node2&#45;&gt;Node4</title>
<path fill="none" stroke="midnightblue" d="M44.1,-56.32C53.96,-48.26 68.85,-36.08 80.72,-26.37"/>
<polygon fill="midnightblue" stroke="midnightblue" points="83.18,-28.88 88.7,-19.83 78.75,-23.46 83.18,-28.88"/>
</g>
<!-- Node5&#45;&gt;Node2 -->
<g id="edge5" class="edge">
<title>Node5&#45;&gt;Node2</title>
<path fill="none" stroke="midnightblue" d="M41.85,-112.08C40.52,-104.93 38.62,-94.64 36.96,-85.69"/>
<polygon fill="midnightblue" stroke="midnightblue" points="40.38,-84.95 35.12,-75.75 33.5,-86.22 40.38,-84.95"/>
</g>
</g>
</svg>
