<?xml version="1.0" encoding="UTF-8" standalone="no"?>
<!DOCTYPE svg PUBLIC "-//W3C//DTD SVG 1.1//EN"
 "http://www.w3.org/Graphics/SVG/1.1/DTD/svg11.dtd">
<!-- Generated by graphviz version 3.0.0 (0)
 -->
<!-- Title: src/CGemKomentare.h Pages: 1 -->
<svg width="138pt" height="196pt"
 viewBox="0.00 0.00 138.00 196.00" xmlns="http://www.w3.org/2000/svg" xmlns:xlink="http://www.w3.org/1999/xlink">
<g id="graph0" class="graph" transform="scale(1 1) rotate(0) translate(4 192)">
<title>src/CGemKomentare.h</title>
<polygon fill="white" stroke="transparent" points="-4,4 -4,-192 134,-192 134,4 -4,4"/>
<!-- Node1 -->
<g id="node1" class="node">
<title>Node1</title>
<g id="a_node1"><a xlink:title=" ">
<polygon fill="#bfbfbf" stroke="black" points="0,-168.5 0,-187.5 126,-187.5 126,-168.5 0,-168.5"/>
<text text-anchor="middle" x="63" y="-175.5" font-family="Helvetica,sans-Serif" font-size="10.00">src/CGemKomentare.h</text>
</a>
</g>
</g>
<!-- Node2 -->
<g id="node2" class="node">
<title>Node2</title>
<g id="a_node2"><a xlink:href="matrix_8h.html" target="_top" xlink:title=" ">
<polygon fill="white" stroke="black" points="34,-56.5 34,-75.5 92,-75.5 92,-56.5 34,-56.5"/>
<text text-anchor="middle" x="63" y="-63.5" font-family="Helvetica,sans-Serif" font-size="10.00">matrix.h</text>
</a>
</g>
</g>
<!-- Node1&#45;&gt;Node2 -->
<g id="edge1" class="edge">
<title>Node1&#45;&gt;Node2</title>
<path fill="none" stroke="midnightblue" d="M60.45,-168.19C57.13,-155.72 52,-132.18 54,-112 54.87,-103.17 56.69,-93.51 58.47,-85.4"/>
<polygon fill="midnightblue" stroke="midnightblue" points="61.9,-86.08 60.77,-75.55 55.08,-84.49 61.9,-86.08"/>
</g>
<!-- Node5 -->
<g id="node5" class="node">
<title>Node5</title>
<g id="a_node5"><a xlink:href="CGem_8h.html" target="_top" xlink:title=" ">
<polygon fill="white" stroke="black" points="63,-112.5 63,-131.5 119,-131.5 119,-112.5 63,-112.5"/>
<text text-anchor="middle" x="91" y="-119.5" font-family="Helvetica,sans-Serif" font-size="10.00">CGem.h</text>
</a>
</g>
</g>
<!-- Node1&#45;&gt;Node5 -->
<g id="edge4" class="edge">
<title>Node1&#45;&gt;Node5</title>
<path fill="none" stroke="midnightblue" d="M67.62,-168.08C71.46,-160.69 77.02,-149.95 81.76,-140.81"/>
<polygon fill="midnightblue" stroke="midnightblue" points="84.97,-142.24 86.46,-131.75 78.75,-139.02 84.97,-142.24"/>
</g>
<!-- Node3 -->
<g id="node3" class="node">
<title>Node3</title>
<g id="a_node3"><a xlink:title=" ">
<polygon fill="white" stroke="#bfbfbf" points="0.5,-0.5 0.5,-19.5 51.5,-19.5 51.5,-0.5 0.5,-0.5"/>
<text text-anchor="middle" x="26" y="-7.5" font-family="Helvetica,sans-Serif" font-size="10.00">math.h</text>
</a>
</g>
</g>
<!-- Node2&#45;&gt;Node3 -->
<g id="edge2" class="edge">
<title>Node2&#45;&gt;Node3</title>
<path fill="none" stroke="midnightblue" d="M56.89,-56.08C51.72,-48.53 44.15,-37.49 37.81,-28.23"/>
<polygon fill="midnightblue" stroke="midnightblue" points="40.54,-26.02 32,-19.75 34.76,-29.98 40.54,-26.02"/>
</g>
<!-- Node4 -->
<g id="node4" class="node">
<title>Node4</title>
<g id="a_node4"><a xlink:title=" ">
<polygon fill="white" stroke="#bfbfbf" points="70,-0.5 70,-19.5 130,-19.5 130,-0.5 70,-0.5"/>
<text text-anchor="middle" x="100" y="-7.5" font-family="Helvetica,sans-Serif" font-size="10.00">iostream</text>
</a>
</g>
</g>
<!-- Node2&#45;&gt;Node4 -->
<g id="edge3" class="edge">
<title>Node2&#45;&gt;Node4</title>
<path fill="none" stroke="midnightblue" d="M69.11,-56.08C74.28,-48.53 81.85,-37.49 88.19,-28.23"/>
<polygon fill="midnightblue" stroke="midnightblue" points="91.24,-29.98 94,-19.75 85.46,-26.02 91.24,-29.98"/>
</g>
<!-- Node5&#45;&gt;Node2 -->
<g id="edge5" class="edge">
<title>Node5&#45;&gt;Node2</title>
<path fill="none" stroke="midnightblue" d="M86.38,-112.08C82.54,-104.69 76.98,-93.95 72.24,-84.81"/>
<polygon fill="midnightblue" stroke="midnightblue" points="75.25,-83.02 67.54,-75.75 69.03,-86.24 75.25,-83.02"/>
</g>
</g>
</svg>
