<?xml version="1.0" encoding="UTF-8" standalone="no"?>
<!DOCTYPE svg PUBLIC "-//W3C//DTD SVG 1.1//EN"
 "http://www.w3.org/Graphics/SVG/1.1/DTD/svg11.dtd">
<!-- Generated by graphviz version 3.0.0 (0)
 -->
<!-- Title: src/CGem.h Pages: 1 -->
<svg width="304pt" height="140pt"
 viewBox="0.00 0.00 303.50 140.00" xmlns="http://www.w3.org/2000/svg" xmlns:xlink="http://www.w3.org/1999/xlink">
<g id="graph0" class="graph" transform="scale(1 1) rotate(0) translate(4 136)">
<title>src/CGem.h</title>
<polygon fill="white" stroke="transparent" points="-4,4 -4,-136 299.5,-136 299.5,4 -4,4"/>
<!-- Node1 -->
<g id="node1" class="node">
<title>Node1</title>
<g id="a_node1"><a xlink:title=" ">
<polygon fill="#bfbfbf" stroke="black" points="128.5,-112.5 128.5,-131.5 201.5,-131.5 201.5,-112.5 128.5,-112.5"/>
<text text-anchor="middle" x="165" y="-119.5" font-family="Helvetica,sans-Serif" font-size="10.00">src/CGem.h</text>
</a>
</g>
</g>
<!-- Node2 -->
<g id="node2" class="node">
<title>Node2</title>
<g id="a_node2"><a xlink:href="CGem_8cpp.html" target="_top" xlink:title=" ">
<polygon fill="white" stroke="black" points="0,-56.5 0,-75.5 84,-75.5 84,-56.5 0,-56.5"/>
<text text-anchor="middle" x="42" y="-63.5" font-family="Helvetica,sans-Serif" font-size="10.00">src/CGem.cpp</text>
</a>
</g>
</g>
<!-- Node1&#45;&gt;Node2 -->
<g id="edge1" class="edge">
<title>Node1&#45;&gt;Node2</title>
<path fill="none" stroke="midnightblue" d="M136.23,-108.37C113.19,-98.26 81.52,-84.35 61.4,-75.52"/>
<polygon fill="midnightblue" stroke="midnightblue" points="134.95,-111.63 145.51,-112.44 137.76,-105.22 134.95,-111.63"/>
</g>
<!-- Node3 -->
<g id="node3" class="node">
<title>Node3</title>
<g id="a_node3"><a xlink:href="CGemKomentare_8h.html" target="_top" xlink:title=" ">
<polygon fill="white" stroke="black" points="102,-56.5 102,-75.5 228,-75.5 228,-56.5 102,-56.5"/>
<text text-anchor="middle" x="165" y="-63.5" font-family="Helvetica,sans-Serif" font-size="10.00">src/CGemKomentare.h</text>
</a>
</g>
</g>
<!-- Node1&#45;&gt;Node3 -->
<g id="edge2" class="edge">
<title>Node1&#45;&gt;Node3</title>
<path fill="none" stroke="midnightblue" d="M165,-101.8C165,-92.91 165,-82.78 165,-75.75"/>
<polygon fill="midnightblue" stroke="midnightblue" points="161.5,-102.08 165,-112.08 168.5,-102.08 161.5,-102.08"/>
</g>
<!-- Node5 -->
<g id="node5" class="node">
<title>Node5</title>
<g id="a_node5"><a xlink:href="main_8cpp.html" target="_top" xlink:title=" ">
<polygon fill="white" stroke="black" points="216.5,-0.5 216.5,-19.5 295.5,-19.5 295.5,-0.5 216.5,-0.5"/>
<text text-anchor="middle" x="256" y="-7.5" font-family="Helvetica,sans-Serif" font-size="10.00">src/main.cpp</text>
</a>
</g>
</g>
<!-- Node1&#45;&gt;Node5 -->
<g id="edge5" class="edge">
<title>Node1&#45;&gt;Node5</title>
<path fill="none" stroke="midnightblue" d="M196.01,-107.98C210.35,-100.53 226.49,-89.88 237,-76 249.92,-58.94 254.07,-33.29 255.39,-19.88"/>
<polygon fill="midnightblue" stroke="midnightblue" points="194.38,-104.88 186.93,-112.41 197.45,-111.17 194.38,-104.88"/>
</g>
<!-- Node4 -->
<g id="node4" class="node">
<title>Node4</title>
<g id="a_node4"><a xlink:href="CGemKomentare_8cpp.html" target="_top" xlink:title=" ">
<polygon fill="white" stroke="black" points="61.5,-0.5 61.5,-19.5 198.5,-19.5 198.5,-0.5 61.5,-0.5"/>
<text text-anchor="middle" x="130" y="-7.5" font-family="Helvetica,sans-Serif" font-size="10.00">src/CGemKomentare.cpp</text>
</a>
</g>
</g>
<!-- Node3&#45;&gt;Node4 -->
<g id="edge3" class="edge">
<title>Node3&#45;&gt;Node4</title>
<path fill="none" stroke="midnightblue" d="M153.7,-47.57C147.68,-38.27 140.53,-27.25 135.67,-19.75"/>
<polygon fill="midnightblue" stroke="midnightblue" points="150.84,-49.6 159.22,-56.08 156.72,-45.79 150.84,-49.6"/>
</g>
<!-- Node3&#45;&gt;Node5 -->
<g id="edge4" class="edge">
<title>Node3&#45;&gt;Node5</title>
<path fill="none" stroke="midnightblue" d="M188.29,-51.18C205.04,-41.24 227.1,-28.15 241.42,-19.65"/>
<polygon fill="midnightblue" stroke="midnightblue" points="186.43,-48.21 179.62,-56.32 190.01,-54.23 186.43,-48.21"/>
</g>
</g>
</svg>
