<?xml version="1.0" encoding="UTF-8" standalone="no"?>
<!DOCTYPE svg PUBLIC "-//W3C//DTD SVG 1.1//EN"
 "http://www.w3.org/Graphics/SVG/1.1/DTD/svg11.dtd">
<!-- Generated by graphviz version 3.0.0 (0)
 -->
<!-- Title: src/CGemKomentare.cpp Pages: 1 -->
<svg width="172pt" height="252pt"
 viewBox="0.00 0.00 171.97 252.00" xmlns="http://www.w3.org/2000/svg" xmlns:xlink="http://www.w3.org/1999/xlink">
<g id="graph0" class="graph" transform="scale(1 1) rotate(0) translate(4 248)">
<title>src/CGemKomentare.cpp</title>
<polygon fill="white" stroke="transparent" points="-4,4 -4,-248 167.97,-248 167.97,4 -4,4"/>
<!-- Node1 -->
<g id="node1" class="node">
<title>Node1</title>
<g id="a_node1"><a xlink:title=" ">
<polygon fill="#bfbfbf" stroke="black" points="26.5,-224.5 26.5,-243.5 163.5,-243.5 163.5,-224.5 26.5,-224.5"/>
<text text-anchor="middle" x="95" y="-231.5" font-family="Helvetica,sans-Serif" font-size="10.00">src/CGemKomentare.cpp</text>
</a>
</g>
</g>
<!-- Node2 -->
<g id="node2" class="node">
<title>Node2</title>
<g id="a_node2"><a xlink:href="matrix_8h.html" target="_top" xlink:title=" ">
<polygon fill="white" stroke="black" points="84,-56.5 84,-75.5 142,-75.5 142,-56.5 84,-56.5"/>
<text text-anchor="middle" x="113" y="-63.5" font-family="Helvetica,sans-Serif" font-size="10.00">matrix.h</text>
</a>
</g>
</g>
<!-- Node1&#45;&gt;Node2 -->
<g id="edge1" class="edge">
<title>Node1&#45;&gt;Node2</title>
<path fill="none" stroke="midnightblue" d="M116.48,-224.36C131.39,-217.09 150.11,-205.12 159,-188 165.34,-175.8 166.82,-139.12 155,-112 150.02,-100.57 140.85,-90.21 132.35,-82.32"/>
<polygon fill="midnightblue" stroke="midnightblue" points="134.4,-79.47 124.56,-75.55 129.81,-84.75 134.4,-79.47"/>
</g>
<!-- Node4 -->
<g id="node4" class="node">
<title>Node4</title>
<g id="a_node4"><a xlink:title=" ">
<polygon fill="white" stroke="#bfbfbf" points="0,-0.5 0,-19.5 60,-19.5 60,-0.5 0,-0.5"/>
<text text-anchor="middle" x="30" y="-7.5" font-family="Helvetica,sans-Serif" font-size="10.00">iostream</text>
</a>
</g>
</g>
<!-- Node1&#45;&gt;Node4 -->
<g id="edge8" class="edge">
<title>Node1&#45;&gt;Node4</title>
<path fill="none" stroke="midnightblue" d="M73.86,-224.5C58.92,-217.24 40,-205.21 31,-188 3.88,-136.13 16.56,-63.47 24.83,-29.66"/>
<polygon fill="midnightblue" stroke="midnightblue" points="28.27,-30.33 27.4,-19.77 21.5,-28.57 28.27,-30.33"/>
</g>
<!-- Node5 -->
<g id="node5" class="node">
<title>Node5</title>
<g id="a_node5"><a xlink:href="CGemKomentare_8h.html" target="_top" xlink:title=" ">
<polygon fill="white" stroke="black" points="40.5,-168.5 40.5,-187.5 149.5,-187.5 149.5,-168.5 40.5,-168.5"/>
<text text-anchor="middle" x="95" y="-175.5" font-family="Helvetica,sans-Serif" font-size="10.00">CGemKomentare.h</text>
</a>
</g>
</g>
<!-- Node1&#45;&gt;Node5 -->
<g id="edge4" class="edge">
<title>Node1&#45;&gt;Node5</title>
<path fill="none" stroke="midnightblue" d="M95,-224.08C95,-217.01 95,-206.86 95,-197.99"/>
<polygon fill="midnightblue" stroke="midnightblue" points="98.5,-197.75 95,-187.75 91.5,-197.75 98.5,-197.75"/>
</g>
<!-- Node3 -->
<g id="node3" class="node">
<title>Node3</title>
<g id="a_node3"><a xlink:title=" ">
<polygon fill="white" stroke="#bfbfbf" points="87.5,-0.5 87.5,-19.5 138.5,-19.5 138.5,-0.5 87.5,-0.5"/>
<text text-anchor="middle" x="113" y="-7.5" font-family="Helvetica,sans-Serif" font-size="10.00">math.h</text>
</a>
</g>
</g>
<!-- Node2&#45;&gt;Node3 -->
<g id="edge2" class="edge">
<title>Node2&#45;&gt;Node3</title>
<path fill="none" stroke="midnightblue" d="M113,-56.08C113,-49.01 113,-38.86 113,-29.99"/>
<polygon fill="midnightblue" stroke="midnightblue" points="116.5,-29.75 113,-19.75 109.5,-29.75 116.5,-29.75"/>
</g>
<!-- Node2&#45;&gt;Node4 -->
<g id="edge3" class="edge">
<title>Node2&#45;&gt;Node4</title>
<path fill="none" stroke="midnightblue" d="M99.66,-56.32C86.84,-47.98 67.22,-35.21 52.06,-25.35"/>
<polygon fill="midnightblue" stroke="midnightblue" points="53.59,-22.17 43.3,-19.65 49.78,-28.04 53.59,-22.17"/>
</g>
<!-- Node5&#45;&gt;Node2 -->
<g id="edge5" class="edge">
<title>Node5&#45;&gt;Node2</title>
<path fill="none" stroke="midnightblue" d="M90.36,-168.45C84.17,-155.89 74.68,-131.79 81,-112 84.34,-101.54 91.1,-91.43 97.55,-83.45"/>
<polygon fill="midnightblue" stroke="midnightblue" points="100.35,-85.56 104.25,-75.71 95.06,-80.98 100.35,-85.56"/>
</g>
<!-- Node6 -->
<g id="node6" class="node">
<title>Node6</title>
<g id="a_node6"><a xlink:href="CGem_8h.html" target="_top" xlink:title=" ">
<polygon fill="white" stroke="black" points="90,-112.5 90,-131.5 146,-131.5 146,-112.5 90,-112.5"/>
<text text-anchor="middle" x="118" y="-119.5" font-family="Helvetica,sans-Serif" font-size="10.00">CGem.h</text>
</a>
</g>
</g>
<!-- Node5&#45;&gt;Node6 -->
<g id="edge6" class="edge">
<title>Node5&#45;&gt;Node6</title>
<path fill="none" stroke="midnightblue" d="M98.8,-168.08C101.91,-160.77 106.42,-150.18 110.29,-141.1"/>
<polygon fill="midnightblue" stroke="midnightblue" points="113.57,-142.32 114.27,-131.75 107.13,-139.58 113.57,-142.32"/>
</g>
<!-- Node6&#45;&gt;Node2 -->
<g id="edge7" class="edge">
<title>Node6&#45;&gt;Node2</title>
<path fill="none" stroke="midnightblue" d="M117.17,-112.08C116.52,-105.01 115.58,-94.86 114.76,-85.99"/>
<polygon fill="midnightblue" stroke="midnightblue" points="118.22,-85.39 113.81,-75.75 111.25,-86.03 118.22,-85.39"/>
</g>
</g>
</svg>
