<?xml version="1.0" encoding="UTF-8" standalone="no"?>
<!DOCTYPE svg PUBLIC "-//W3C//DTD SVG 1.1//EN"
 "http://www.w3.org/Graphics/SVG/1.1/DTD/svg11.dtd">
<!-- Generated by graphviz version 3.0.0 (0)
 -->
<!-- Title: CMatrix::Det Pages: 1 -->
<svg width="386pt" height="84pt"
 viewBox="0.00 0.00 386.00 84.00" xmlns="http://www.w3.org/2000/svg" xmlns:xlink="http://www.w3.org/1999/xlink">
<g id="graph0" class="graph" transform="scale(1 1) rotate(0) translate(4 80)">
<title>CMatrix::Det</title>
<polygon fill="white" stroke="transparent" points="-4,4 -4,-80 382,-80 382,4 -4,4"/>
<!-- Node1 -->
<g id="node1" class="node">
<title>Node1</title>
<g id="a_node1"><a xlink:title=" ">
<polygon fill="#bfbfbf" stroke="black" points="0,-19.5 0,-38.5 78,-38.5 78,-19.5 0,-19.5"/>
<text text-anchor="middle" x="39" y="-26.5" font-family="Helvetica,sans-Serif" font-size="10.00">CMatrix::Det</text>
</a>
</g>
</g>
<!-- Node2 -->
<g id="node2" class="node">
<title>Node2</title>
<g id="a_node2"><a xlink:href="classCMatrix.html#a6257aec883193efe8bb16179548cb95a" target="_top" xlink:title=" ">
<polygon fill="white" stroke="black" points="117.5,-38.5 117.5,-57.5 213.5,-57.5 213.5,-38.5 117.5,-38.5"/>
<text text-anchor="middle" x="165.5" y="-45.5" font-family="Helvetica,sans-Serif" font-size="10.00">CMatrix::findDet</text>
</a>
</g>
</g>
<!-- Node1&#45;&gt;Node2 -->
<g id="edge1" class="edge">
<title>Node1&#45;&gt;Node2</title>
<path fill="none" stroke="midnightblue" d="M78.03,-34.8C87.36,-36.23 97.56,-37.78 107.56,-39.31"/>
<polygon fill="midnightblue" stroke="midnightblue" points="107.06,-42.77 117.47,-40.82 108.11,-35.85 107.06,-42.77"/>
</g>
<!-- Node4 -->
<g id="node4" class="node">
<title>Node4</title>
<g id="a_node4"><a xlink:href="classCMatrix.html#ad6d9d5756b2d75a733715a987e5ea944" target="_top" xlink:title=" ">
<polygon fill="white" stroke="black" points="114,-0.5 114,-19.5 217,-19.5 217,-0.5 114,-0.5"/>
<text text-anchor="middle" x="165.5" y="-7.5" font-family="Helvetica,sans-Serif" font-size="10.00">CMatrix::IsSquare</text>
</a>
</g>
</g>
<!-- Node1&#45;&gt;Node4 -->
<g id="edge4" class="edge">
<title>Node1&#45;&gt;Node4</title>
<path fill="none" stroke="midnightblue" d="M78.03,-23.2C86.24,-21.94 95.11,-20.59 103.94,-19.24"/>
<polygon fill="midnightblue" stroke="midnightblue" points="104.5,-22.7 113.86,-17.73 103.44,-15.78 104.5,-22.7"/>
</g>
<!-- Node2&#45;&gt;Node2 -->
<g id="edge3" class="edge">
<title>Node2&#45;&gt;Node2</title>
<path fill="none" stroke="midnightblue" d="M146.08,-57.76C136.63,-66.57 143.11,-76 165.5,-76 179.85,-76 187.66,-72.13 188.94,-67.03"/>
<polygon fill="midnightblue" stroke="midnightblue" points="192.11,-65.54 184.92,-57.76 185.68,-68.32 192.11,-65.54"/>
</g>
<!-- Node3 -->
<g id="node3" class="node">
<title>Node3</title>
<g id="a_node3"><a xlink:href="classCMatrix.html#afd6e6fa2821f447165ece8e5c1f90ef1" target="_top" xlink:title=" ">
<polygon fill="white" stroke="black" points="253,-38.5 253,-57.5 378,-57.5 378,-38.5 253,-38.5"/>
<text text-anchor="middle" x="315.5" y="-45.5" font-family="Helvetica,sans-Serif" font-size="10.00">CMatrix::clearMemory</text>
</a>
</g>
</g>
<!-- Node2&#45;&gt;Node3 -->
<g id="edge2" class="edge">
<title>Node2&#45;&gt;Node3</title>
<path fill="none" stroke="midnightblue" d="M213.74,-48C222.96,-48 232.84,-48 242.66,-48"/>
<polygon fill="midnightblue" stroke="midnightblue" points="242.84,-51.5 252.84,-48 242.84,-44.5 242.84,-51.5"/>
</g>
</g>
</svg>
