<?xml version="1.0" encoding="UTF-8" standalone="no"?>
<!DOCTYPE svg PUBLIC "-//W3C//DTD SVG 1.1//EN"
 "http://www.w3.org/Graphics/SVG/1.1/DTD/svg11.dtd">
<!-- Generated by graphviz version 3.0.0 (0)
 -->
<!-- Title: CMatrix::CMatrix Pages: 1 -->
<svg width="227pt" height="104pt"
 viewBox="0.00 0.00 227.00 104.00" xmlns="http://www.w3.org/2000/svg" xmlns:xlink="http://www.w3.org/1999/xlink">
<g id="graph0" class="graph" transform="scale(1 1) rotate(0) translate(4 100)">
<title>CMatrix::CMatrix</title>
<polygon fill="white" stroke="transparent" points="-4,4 -4,-100 223,-100 223,4 -4,4"/>
<!-- Node1 -->
<g id="node1" class="node">
<title>Node1</title>
<g id="a_node1"><a xlink:title=" ">
<polygon fill="#bfbfbf" stroke="black" points="0,-38.5 0,-57.5 99,-57.5 99,-38.5 0,-38.5"/>
<text text-anchor="middle" x="49.5" y="-45.5" font-family="Helvetica,sans-Serif" font-size="10.00">CMatrix::CMatrix</text>
</a>
</g>
</g>
<!-- Node2 -->
<g id="node2" class="node">
<title>Node2</title>
<g id="a_node2"><a xlink:href="classCMatrix.html#af7ad82a26f27d7f9aeafc099ae13bcbc" target="_top" xlink:title=" ">
<polygon fill="white" stroke="black" points="137,-76.5 137,-95.5 217,-95.5 217,-76.5 137,-76.5"/>
<text text-anchor="middle" x="177" y="-83.5" font-family="Helvetica,sans-Serif" font-size="10.00">CMatrix::cols</text>
</a>
</g>
</g>
<!-- Node1&#45;&gt;Node2 -->
<g id="edge1" class="edge">
<title>Node1&#45;&gt;Node2</title>
<path fill="none" stroke="midnightblue" d="M82.17,-57.59C98.07,-62.4 117.54,-68.3 134.61,-73.47"/>
<polygon fill="midnightblue" stroke="midnightblue" points="133.76,-76.87 144.34,-76.41 135.78,-70.17 133.76,-76.87"/>
</g>
<!-- Node3 -->
<g id="node3" class="node">
<title>Node3</title>
<g id="a_node3"><a xlink:href="classCMatrix.html#ab5ac6d4c06b0f182f64d628ec899c4f5" target="_top" xlink:title=" ">
<polygon fill="white" stroke="black" points="135.5,-38.5 135.5,-57.5 218.5,-57.5 218.5,-38.5 135.5,-38.5"/>
<text text-anchor="middle" x="177" y="-45.5" font-family="Helvetica,sans-Serif" font-size="10.00">CMatrix::data</text>
</a>
</g>
</g>
<!-- Node1&#45;&gt;Node3 -->
<g id="edge2" class="edge">
<title>Node1&#45;&gt;Node3</title>
<path fill="none" stroke="midnightblue" d="M99.02,-48C107.65,-48 116.65,-48 125.34,-48"/>
<polygon fill="midnightblue" stroke="midnightblue" points="125.34,-51.5 135.34,-48 125.34,-44.5 125.34,-51.5"/>
</g>
<!-- Node4 -->
<g id="node4" class="node">
<title>Node4</title>
<g id="a_node4"><a xlink:href="classCMatrix.html#a119114ca80cc672072f278ef110a1605" target="_top" xlink:title=" ">
<polygon fill="white" stroke="black" points="135,-0.5 135,-19.5 219,-19.5 219,-0.5 135,-0.5"/>
<text text-anchor="middle" x="177" y="-7.5" font-family="Helvetica,sans-Serif" font-size="10.00">CMatrix::rows</text>
</a>
</g>
</g>
<!-- Node1&#45;&gt;Node4 -->
<g id="edge3" class="edge">
<title>Node1&#45;&gt;Node4</title>
<path fill="none" stroke="midnightblue" d="M82.17,-38.41C98.07,-33.6 117.54,-27.7 134.61,-22.53"/>
<polygon fill="midnightblue" stroke="midnightblue" points="135.78,-25.83 144.34,-19.59 133.76,-19.13 135.78,-25.83"/>
</g>
</g>
</svg>
