<?xml version="1.0" encoding="UTF-8" standalone="no"?>
<!DOCTYPE svg PUBLIC "-//W3C//DTD SVG 1.1//EN"
 "http://www.w3.org/Graphics/SVG/1.1/DTD/svg11.dtd">
<!-- Generated by graphviz version 3.0.0 (0)
 -->
<!-- Title: CGem::CheckForGem Pages: 1 -->
<svg width="390pt" height="66pt"
 viewBox="0.00 0.00 390.00 66.00" xmlns="http://www.w3.org/2000/svg" xmlns:xlink="http://www.w3.org/1999/xlink">
<g id="graph0" class="graph" transform="scale(1 1) rotate(0) translate(4 62)">
<title>CGem::CheckForGem</title>
<polygon fill="white" stroke="transparent" points="-4,4 -4,-62 386,-62 386,4 -4,4"/>
<!-- Node1 -->
<g id="node1" class="node">
<title>Node1</title>
<g id="a_node1"><a xlink:title=" ">
<polygon fill="#bfbfbf" stroke="black" points="261,-19.5 261,-38.5 382,-38.5 382,-19.5 261,-19.5"/>
<text text-anchor="middle" x="321.5" y="-26.5" font-family="Helvetica,sans-Serif" font-size="10.00">CGem::CheckForGem</text>
</a>
</g>
</g>
<!-- Node2 -->
<g id="node2" class="node">
<title>Node2</title>
<g id="a_node2"><a xlink:href="classCGem.html#a761f9fbce8991678298143a3472dee61" target="_top" xlink:title=" ">
<polygon fill="white" stroke="black" points="103.5,-38.5 103.5,-57.5 198.5,-57.5 198.5,-38.5 103.5,-38.5"/>
<text text-anchor="middle" x="151" y="-45.5" font-family="Helvetica,sans-Serif" font-size="10.00">CGem::RunGem</text>
</a>
</g>
</g>
<!-- Node1&#45;&gt;Node2 -->
<g id="edge1" class="edge">
<title>Node1&#45;&gt;Node2</title>
<path fill="none" stroke="midnightblue" d="M250.47,-36.9C233.02,-38.86 214.73,-40.93 198.71,-42.73"/>
<polygon fill="midnightblue" stroke="midnightblue" points="251.07,-40.35 260.62,-35.75 250.29,-33.39 251.07,-40.35"/>
</g>
<!-- Node4 -->
<g id="node4" class="node">
<title>Node4</title>
<g id="a_node4"><a xlink:href="classCGemKomentare.html#a249425fa1a32afb535ad72f2f2419724" target="_top" xlink:title=" ">
<polygon fill="white" stroke="black" points="77,-0.5 77,-19.5 225,-19.5 225,-0.5 77,-0.5"/>
<text text-anchor="middle" x="151" y="-7.5" font-family="Helvetica,sans-Serif" font-size="10.00">CGemKomentare::RunGem</text>
</a>
</g>
</g>
<!-- Node1&#45;&gt;Node4 -->
<g id="edge3" class="edge">
<title>Node1&#45;&gt;Node4</title>
<path fill="none" stroke="midnightblue" d="M250.55,-21.11C242.2,-20.17 233.66,-19.21 225.26,-18.26"/>
<polygon fill="midnightblue" stroke="midnightblue" points="250.29,-24.61 260.62,-22.25 251.07,-17.65 250.29,-24.61"/>
</g>
<!-- Node3 -->
<g id="node3" class="node">
<title>Node3</title>
<g id="a_node3"><a xlink:href="main_8cpp.html#abf9e6b7e6f15df4b525a2e7705ba3089" target="_top" xlink:title=" ">
<polygon fill="white" stroke="black" points="0,-19.5 0,-38.5 41,-38.5 41,-19.5 0,-19.5"/>
<text text-anchor="middle" x="20.5" y="-26.5" font-family="Helvetica,sans-Serif" font-size="10.00">main</text>
</a>
</g>
</g>
<!-- Node2&#45;&gt;Node3 -->
<g id="edge2" class="edge">
<title>Node2&#45;&gt;Node3</title>
<path fill="none" stroke="midnightblue" d="M93.31,-39.62C74.67,-36.86 55.17,-33.98 41.2,-31.91"/>
<polygon fill="midnightblue" stroke="midnightblue" points="92.84,-43.09 103.25,-41.09 93.86,-36.16 92.84,-43.09"/>
</g>
<!-- Node4&#45;&gt;Node3 -->
<g id="edge4" class="edge">
<title>Node4&#45;&gt;Node3</title>
<path fill="none" stroke="midnightblue" d="M75.21,-21.06C62.64,-22.92 50.63,-24.69 41.16,-26.09"/>
<polygon fill="midnightblue" stroke="midnightblue" points="75.99,-24.48 85.37,-19.56 74.97,-17.56 75.99,-24.48"/>
</g>
</g>
</svg>
