<?xml version="1.0" encoding="UTF-8" standalone="no"?>
<!DOCTYPE svg PUBLIC "-//W3C//DTD SVG 1.1//EN"
 "http://www.w3.org/Graphics/SVG/1.1/DTD/svg11.dtd">
<!-- Generated by graphviz version 3.0.0 (0)
 -->
<!-- Title: CMatrix::Inverse Pages: 1 -->
<svg width="527pt" height="160pt"
 viewBox="0.00 0.00 527.00 160.00" xmlns="http://www.w3.org/2000/svg" xmlns:xlink="http://www.w3.org/1999/xlink">
<g id="graph0" class="graph" transform="scale(1 1) rotate(0) translate(4 156)">
<title>CMatrix::Inverse</title>
<polygon fill="white" stroke="transparent" points="-4,4 -4,-156 523,-156 523,4 -4,4"/>
<!-- Node1 -->
<g id="node1" class="node">
<title>Node1</title>
<g id="a_node1"><a xlink:title=" ">
<polygon fill="#bfbfbf" stroke="black" points="0,-75.5 0,-94.5 97,-94.5 97,-75.5 0,-75.5"/>
<text text-anchor="middle" x="48.5" y="-82.5" font-family="Helvetica,sans-Serif" font-size="10.00">CMatrix::Inverse</text>
</a>
</g>
</g>
<!-- Node2 -->
<g id="node2" class="node">
<title>Node2</title>
<g id="a_node2"><a xlink:href="classCMatrix.html#ab5ac6d4c06b0f182f64d628ec899c4f5" target="_top" xlink:title=" ">
<polygon fill="white" stroke="black" points="134.5,-132.5 134.5,-151.5 217.5,-151.5 217.5,-132.5 134.5,-132.5"/>
<text text-anchor="middle" x="176" y="-139.5" font-family="Helvetica,sans-Serif" font-size="10.00">CMatrix::data</text>
</a>
</g>
</g>
<!-- Node1&#45;&gt;Node2 -->
<g id="edge1" class="edge">
<title>Node1&#45;&gt;Node2</title>
<path fill="none" stroke="midnightblue" d="M70.51,-94.54C90.78,-103.75 121.68,-117.78 144.63,-128.21"/>
<polygon fill="midnightblue" stroke="midnightblue" points="143.37,-131.48 153.93,-132.43 146.27,-125.11 143.37,-131.48"/>
</g>
<!-- Node3 -->
<g id="node3" class="node">
<title>Node3</title>
<g id="a_node3"><a xlink:href="classCMatrix.html#a51d61d2086432363578c02bfa7072f9d" target="_top" xlink:title=" ">
<polygon fill="white" stroke="black" points="137,-56.5 137,-75.5 215,-75.5 215,-56.5 137,-56.5"/>
<text text-anchor="middle" x="176" y="-63.5" font-family="Helvetica,sans-Serif" font-size="10.00">CMatrix::Det</text>
</a>
</g>
</g>
<!-- Node1&#45;&gt;Node3 -->
<g id="edge2" class="edge">
<title>Node1&#45;&gt;Node3</title>
<path fill="none" stroke="midnightblue" d="M97.3,-77.76C106.87,-76.31 116.92,-74.79 126.51,-73.34"/>
<polygon fill="midnightblue" stroke="midnightblue" points="127.32,-76.76 136.68,-71.8 126.27,-69.84 127.32,-76.76"/>
</g>
<!-- Node6 -->
<g id="node6" class="node">
<title>Node6</title>
<g id="a_node6"><a xlink:href="classCMatrix.html#ad6d9d5756b2d75a733715a987e5ea944" target="_top" xlink:title=" ">
<polygon fill="white" stroke="black" points="255,-94.5 255,-113.5 358,-113.5 358,-94.5 255,-94.5"/>
<text text-anchor="middle" x="306.5" y="-101.5" font-family="Helvetica,sans-Serif" font-size="10.00">CMatrix::IsSquare</text>
</a>
</g>
</g>
<!-- Node1&#45;&gt;Node6 -->
<g id="edge7" class="edge">
<title>Node1&#45;&gt;Node6</title>
<path fill="none" stroke="midnightblue" d="M97.05,-88.53C138.64,-91.62 199.27,-96.12 244.44,-99.47"/>
<polygon fill="midnightblue" stroke="midnightblue" points="244.46,-102.98 254.7,-100.23 244.98,-96 244.46,-102.98"/>
</g>
<!-- Node7 -->
<g id="node7" class="node">
<title>Node7</title>
<g id="a_node7"><a xlink:href="classCMatrix.html#a379c904f29464580d2913e892626e0a1" target="_top" xlink:title=" ">
<polygon fill="white" stroke="black" points="133,-18.5 133,-37.5 219,-37.5 219,-18.5 133,-18.5"/>
<text text-anchor="middle" x="176" y="-25.5" font-family="Helvetica,sans-Serif" font-size="10.00">CMatrix::Rank</text>
</a>
</g>
</g>
<!-- Node1&#45;&gt;Node7 -->
<g id="edge8" class="edge">
<title>Node1&#45;&gt;Node7</title>
<path fill="none" stroke="midnightblue" d="M70.43,-75.46C87.31,-67.77 111.68,-56.67 133,-47 136.67,-45.34 140.51,-43.59 144.33,-41.86"/>
<polygon fill="midnightblue" stroke="midnightblue" points="145.96,-44.97 153.63,-37.66 143.08,-38.59 145.96,-44.97"/>
</g>
<!-- Node4 -->
<g id="node4" class="node">
<title>Node4</title>
<g id="a_node4"><a xlink:href="classCMatrix.html#a6257aec883193efe8bb16179548cb95a" target="_top" xlink:title=" ">
<polygon fill="white" stroke="black" points="258.5,-38.5 258.5,-57.5 354.5,-57.5 354.5,-38.5 258.5,-38.5"/>
<text text-anchor="middle" x="306.5" y="-45.5" font-family="Helvetica,sans-Serif" font-size="10.00">CMatrix::findDet</text>
</a>
</g>
</g>
<!-- Node3&#45;&gt;Node4 -->
<g id="edge3" class="edge">
<title>Node3&#45;&gt;Node4</title>
<path fill="none" stroke="midnightblue" d="M215.21,-60.65C225.52,-59.2 236.9,-57.61 248.01,-56.05"/>
<polygon fill="midnightblue" stroke="midnightblue" points="248.69,-59.49 258.1,-54.64 247.71,-52.56 248.69,-59.49"/>
</g>
<!-- Node3&#45;&gt;Node6 -->
<g id="edge6" class="edge">
<title>Node3&#45;&gt;Node6</title>
<path fill="none" stroke="midnightblue" d="M209.43,-75.59C225.71,-80.4 245.64,-86.3 263.12,-91.47"/>
<polygon fill="midnightblue" stroke="midnightblue" points="262.5,-94.93 273.08,-94.41 264.49,-88.22 262.5,-94.93"/>
</g>
<!-- Node4&#45;&gt;Node4 -->
<g id="edge5" class="edge">
<title>Node4&#45;&gt;Node4</title>
<path fill="none" stroke="midnightblue" d="M286.46,-57.76C276.72,-66.57 283.39,-76 306.5,-76 321.3,-76 329.36,-72.13 330.68,-67.03"/>
<polygon fill="midnightblue" stroke="midnightblue" points="333.81,-65.46 326.54,-57.76 327.42,-68.31 333.81,-65.46"/>
</g>
<!-- Node5 -->
<g id="node5" class="node">
<title>Node5</title>
<g id="a_node5"><a xlink:href="classCMatrix.html#afd6e6fa2821f447165ece8e5c1f90ef1" target="_top" xlink:title=" ">
<polygon fill="white" stroke="black" points="394,-38.5 394,-57.5 519,-57.5 519,-38.5 394,-38.5"/>
<text text-anchor="middle" x="456.5" y="-45.5" font-family="Helvetica,sans-Serif" font-size="10.00">CMatrix::clearMemory</text>
</a>
</g>
</g>
<!-- Node4&#45;&gt;Node5 -->
<g id="edge4" class="edge">
<title>Node4&#45;&gt;Node5</title>
<path fill="none" stroke="midnightblue" d="M354.74,-48C363.96,-48 373.84,-48 383.66,-48"/>
<polygon fill="midnightblue" stroke="midnightblue" points="383.84,-51.5 393.84,-48 383.84,-44.5 383.84,-51.5"/>
</g>
<!-- Node7&#45;&gt;Node4 -->
<g id="edge9" class="edge">
<title>Node7&#45;&gt;Node4</title>
<path fill="none" stroke="midnightblue" d="M219.08,-34.55C228.42,-36 238.48,-37.57 248.31,-39.1"/>
<polygon fill="midnightblue" stroke="midnightblue" points="248.02,-42.6 258.44,-40.68 249.1,-35.68 248.02,-42.6"/>
</g>
<!-- Node8 -->
<g id="node8" class="node">
<title>Node8</title>
<g id="a_node8"><a xlink:href="classCMatrix.html#af06f052be02f6af4df67a76d82922d48" target="_top" xlink:title=" ">
<polygon fill="white" stroke="black" points="262.5,-0.5 262.5,-19.5 350.5,-19.5 350.5,-0.5 262.5,-0.5"/>
<text text-anchor="middle" x="306.5" y="-7.5" font-family="Helvetica,sans-Serif" font-size="10.00">CMatrix::l_min</text>
</a>
</g>
</g>
<!-- Node7&#45;&gt;Node8 -->
<g id="edge10" class="edge">
<title>Node7&#45;&gt;Node8</title>
<path fill="none" stroke="midnightblue" d="M219.08,-22.11C229.72,-20.61 241.3,-18.99 252.41,-17.44"/>
<polygon fill="midnightblue" stroke="midnightblue" points="253.03,-20.88 262.45,-16.03 252.06,-13.95 253.03,-20.88"/>
</g>
</g>
</svg>
