<?xml version="1.0" encoding="UTF-8" standalone="no"?>
<!DOCTYPE svg PUBLIC "-//W3C//DTD SVG 1.1//EN"
 "http://www.w3.org/Graphics/SVG/1.1/DTD/svg11.dtd">
<!-- Generated by graphviz version 3.0.0 (0)
 -->
<!-- Title: CMatrix::rows Pages: 1 -->
<svg width="510pt" height="104pt"
 viewBox="0.00 0.00 510.00 104.00" xmlns="http://www.w3.org/2000/svg" xmlns:xlink="http://www.w3.org/1999/xlink">
<g id="graph0" class="graph" transform="scale(1 1) rotate(0) translate(4 100)">
<title>CMatrix::rows</title>
<polygon fill="white" stroke="transparent" points="-4,4 -4,-100 506,-100 506,4 -4,4"/>
<!-- Node1 -->
<g id="node1" class="node">
<title>Node1</title>
<g id="a_node1"><a xlink:title=" ">
<polygon fill="#bfbfbf" stroke="black" points="418,-38.5 418,-57.5 502,-57.5 502,-38.5 418,-38.5"/>
<text text-anchor="middle" x="460" y="-45.5" font-family="Helvetica,sans-Serif" font-size="10.00">CMatrix::rows</text>
</a>
</g>
</g>
<!-- Node2 -->
<g id="node2" class="node">
<title>Node2</title>
<g id="a_node2"><a xlink:href="classCGem.html#ab4338e6e655c2d725ae24bbe6bad706a" target="_top" xlink:title=" ">
<polygon fill="white" stroke="black" points="261,-76.5 261,-95.5 382,-95.5 382,-76.5 261,-76.5"/>
<text text-anchor="middle" x="321.5" y="-83.5" font-family="Helvetica,sans-Serif" font-size="10.00">CGem::CheckForGem</text>
</a>
</g>
</g>
<!-- Node1&#45;&gt;Node2 -->
<g id="edge1" class="edge">
<title>Node1&#45;&gt;Node2</title>
<path fill="none" stroke="midnightblue" d="M414.75,-60.32C396,-65.54 374.47,-71.53 356.93,-76.41"/>
<polygon fill="midnightblue" stroke="midnightblue" points="415.86,-63.64 424.56,-57.59 413.98,-56.9 415.86,-63.64"/>
</g>
<!-- Node6 -->
<g id="node6" class="node">
<title>Node6</title>
<g id="a_node6"><a xlink:href="classCMatrix.html#ae1a557225d9486581cfc2bb2a946b10e" target="_top" xlink:title=" ">
<polygon fill="white" stroke="black" points="272,-38.5 272,-57.5 371,-57.5 371,-38.5 272,-38.5"/>
<text text-anchor="middle" x="321.5" y="-45.5" font-family="Helvetica,sans-Serif" font-size="10.00">CMatrix::CMatrix</text>
</a>
</g>
</g>
<!-- Node1&#45;&gt;Node6 -->
<g id="edge6" class="edge">
<title>Node1&#45;&gt;Node6</title>
<path fill="none" stroke="midnightblue" d="M407.49,-48C395.65,-48 383.09,-48 371.37,-48"/>
<polygon fill="midnightblue" stroke="midnightblue" points="407.68,-51.5 417.68,-48 407.68,-44.5 407.68,-51.5"/>
</g>
<!-- Node7 -->
<g id="node7" class="node">
<title>Node7</title>
<g id="a_node7"><a xlink:href="classCMatrix.html#a29e1f4a97fd559d63acf4c6396fbf336" target="_top" xlink:title=" ">
<polygon fill="white" stroke="black" points="105,-0.5 105,-19.5 197,-19.5 197,-0.5 105,-0.5"/>
<text text-anchor="middle" x="151" y="-7.5" font-family="Helvetica,sans-Serif" font-size="10.00">CMatrix::Merge</text>
</a>
</g>
</g>
<!-- Node1&#45;&gt;Node7 -->
<g id="edge7" class="edge">
<title>Node1&#45;&gt;Node7</title>
<path fill="none" stroke="midnightblue" d="M415.1,-35.89C404.34,-33.27 392.81,-30.77 382,-29 318.34,-18.58 243.78,-13.75 197.21,-11.6"/>
<polygon fill="midnightblue" stroke="midnightblue" points="414.58,-39.36 425.13,-38.4 416.28,-32.57 414.58,-39.36"/>
</g>
<!-- Node3 -->
<g id="node3" class="node">
<title>Node3</title>
<g id="a_node3"><a xlink:href="classCGem.html#a761f9fbce8991678298143a3472dee61" target="_top" xlink:title=" ">
<polygon fill="white" stroke="black" points="103.5,-76.5 103.5,-95.5 198.5,-95.5 198.5,-76.5 103.5,-76.5"/>
<text text-anchor="middle" x="151" y="-83.5" font-family="Helvetica,sans-Serif" font-size="10.00">CGem::RunGem</text>
</a>
</g>
</g>
<!-- Node2&#45;&gt;Node3 -->
<g id="edge2" class="edge">
<title>Node2&#45;&gt;Node3</title>
<path fill="none" stroke="midnightblue" d="M250.47,-86C233.02,-86 214.73,-86 198.71,-86"/>
<polygon fill="midnightblue" stroke="midnightblue" points="250.62,-89.5 260.62,-86 250.62,-82.5 250.62,-89.5"/>
</g>
<!-- Node5 -->
<g id="node5" class="node">
<title>Node5</title>
<g id="a_node5"><a xlink:href="classCGemKomentare.html#a249425fa1a32afb535ad72f2f2419724" target="_top" xlink:title=" ">
<polygon fill="white" stroke="black" points="77,-38.5 77,-57.5 225,-57.5 225,-38.5 77,-38.5"/>
<text text-anchor="middle" x="151" y="-45.5" font-family="Helvetica,sans-Serif" font-size="10.00">CGemKomentare::RunGem</text>
</a>
</g>
</g>
<!-- Node2&#45;&gt;Node5 -->
<g id="edge4" class="edge">
<title>Node2&#45;&gt;Node5</title>
<path fill="none" stroke="midnightblue" d="M268.07,-74.18C244.31,-68.82 216.6,-62.57 194.21,-57.52"/>
<polygon fill="midnightblue" stroke="midnightblue" points="267.46,-77.63 277.98,-76.41 269,-70.8 267.46,-77.63"/>
</g>
<!-- Node4 -->
<g id="node4" class="node">
<title>Node4</title>
<g id="a_node4"><a xlink:href="main_8cpp.html#abf9e6b7e6f15df4b525a2e7705ba3089" target="_top" xlink:title=" ">
<polygon fill="white" stroke="black" points="0,-38.5 0,-57.5 41,-57.5 41,-38.5 0,-38.5"/>
<text text-anchor="middle" x="20.5" y="-45.5" font-family="Helvetica,sans-Serif" font-size="10.00">main</text>
</a>
</g>
</g>
<!-- Node3&#45;&gt;Node4 -->
<g id="edge3" class="edge">
<title>Node3&#45;&gt;Node4</title>
<path fill="none" stroke="midnightblue" d="M101.39,-73.89C93.22,-71.7 84.85,-69.36 77,-67 65,-63.39 51.72,-58.86 41.16,-55.13"/>
<polygon fill="midnightblue" stroke="midnightblue" points="100.64,-77.32 111.21,-76.48 102.43,-70.55 100.64,-77.32"/>
</g>
<!-- Node5&#45;&gt;Node4 -->
<g id="edge5" class="edge">
<title>Node5&#45;&gt;Node4</title>
<path fill="none" stroke="midnightblue" d="M66.68,-48C57.2,-48 48.34,-48 41.01,-48"/>
<polygon fill="midnightblue" stroke="midnightblue" points="66.74,-51.5 76.74,-48 66.74,-44.5 66.74,-51.5"/>
</g>
<!-- Node7&#45;&gt;Node4 -->
<g id="edge8" class="edge">
<title>Node7&#45;&gt;Node4</title>
<path fill="none" stroke="midnightblue" d="M101.39,-22.11C93.22,-24.3 84.85,-26.64 77,-29 65,-32.61 51.72,-37.14 41.16,-40.87"/>
<polygon fill="midnightblue" stroke="midnightblue" points="102.43,-25.45 111.21,-19.52 100.64,-18.68 102.43,-25.45"/>
</g>
</g>
</svg>
