<?xml version="1.0" encoding="UTF-8" standalone="no"?>
<!DOCTYPE svg PUBLIC "-//W3C//DTD SVG 1.1//EN"
 "http://www.w3.org/Graphics/SVG/1.1/DTD/svg11.dtd">
<!-- Generated by graphviz version 3.0.0 (0)
 -->
<!-- Title: CMatrix::Merge Pages: 1 -->
<svg width="239pt" height="142pt"
 viewBox="0.00 0.00 239.00 142.00" xmlns="http://www.w3.org/2000/svg" xmlns:xlink="http://www.w3.org/1999/xlink">
<g id="graph0" class="graph" transform="scale(1 1) rotate(0) translate(4 138)">
<title>CMatrix::Merge</title>
<polygon fill="white" stroke="transparent" points="-4,4 -4,-138 235,-138 235,4 -4,4"/>
<!-- Node1 -->
<g id="node1" class="node">
<title>Node1</title>
<g id="a_node1"><a xlink:title=" ">
<polygon fill="#bfbfbf" stroke="black" points="0,-57.5 0,-76.5 92,-76.5 92,-57.5 0,-57.5"/>
<text text-anchor="middle" x="46" y="-64.5" font-family="Helvetica,sans-Serif" font-size="10.00">CMatrix::Merge</text>
</a>
</g>
</g>
<!-- Node2 -->
<g id="node2" class="node">
<title>Node2</title>
<g id="a_node2"><a xlink:href="classCMatrix.html#af7ad82a26f27d7f9aeafc099ae13bcbc" target="_top" xlink:title=" ">
<polygon fill="white" stroke="black" points="139.5,-114.5 139.5,-133.5 219.5,-133.5 219.5,-114.5 139.5,-114.5"/>
<text text-anchor="middle" x="179.5" y="-121.5" font-family="Helvetica,sans-Serif" font-size="10.00">CMatrix::cols</text>
</a>
</g>
</g>
<!-- Node1&#45;&gt;Node2 -->
<g id="edge1" class="edge">
<title>Node1&#45;&gt;Node2</title>
<path fill="none" stroke="midnightblue" d="M66.45,-76.65C82.73,-84.61 106.68,-96 128,-105 132.56,-106.92 137.39,-108.86 142.18,-110.73"/>
<polygon fill="midnightblue" stroke="midnightblue" points="141.28,-114.13 151.87,-114.43 143.78,-107.59 141.28,-114.13"/>
</g>
<!-- Node3 -->
<g id="node3" class="node">
<title>Node3</title>
<g id="a_node3"><a xlink:href="classCMatrix.html#ab5ac6d4c06b0f182f64d628ec899c4f5" target="_top" xlink:title=" ">
<polygon fill="white" stroke="black" points="138,-76.5 138,-95.5 221,-95.5 221,-76.5 138,-76.5"/>
<text text-anchor="middle" x="179.5" y="-83.5" font-family="Helvetica,sans-Serif" font-size="10.00">CMatrix::data</text>
</a>
</g>
</g>
<!-- Node1&#45;&gt;Node3 -->
<g id="edge2" class="edge">
<title>Node1&#45;&gt;Node3</title>
<path fill="none" stroke="midnightblue" d="M92.25,-73.54C103.63,-75.18 115.92,-76.96 127.55,-78.64"/>
<polygon fill="midnightblue" stroke="midnightblue" points="127.17,-82.12 137.57,-80.09 128.17,-75.19 127.17,-82.12"/>
</g>
<!-- Node4 -->
<g id="node4" class="node">
<title>Node4</title>
<g id="a_node4"><a xlink:href="classCMatrix.html#ad6d9d5756b2d75a733715a987e5ea944" target="_top" xlink:title=" ">
<polygon fill="white" stroke="black" points="128,-38.5 128,-57.5 231,-57.5 231,-38.5 128,-38.5"/>
<text text-anchor="middle" x="179.5" y="-45.5" font-family="Helvetica,sans-Serif" font-size="10.00">CMatrix::IsSquare</text>
</a>
</g>
</g>
<!-- Node1&#45;&gt;Node4 -->
<g id="edge3" class="edge">
<title>Node1&#45;&gt;Node4</title>
<path fill="none" stroke="midnightblue" d="M92.25,-60.46C100.48,-59.27 109.18,-58.02 117.76,-56.78"/>
<polygon fill="midnightblue" stroke="midnightblue" points="118.35,-60.23 127.75,-55.33 117.35,-53.3 118.35,-60.23"/>
</g>
<!-- Node5 -->
<g id="node5" class="node">
<title>Node5</title>
<g id="a_node5"><a xlink:href="classCMatrix.html#a119114ca80cc672072f278ef110a1605" target="_top" xlink:title=" ">
<polygon fill="white" stroke="black" points="137.5,-0.5 137.5,-19.5 221.5,-19.5 221.5,-0.5 137.5,-0.5"/>
<text text-anchor="middle" x="179.5" y="-7.5" font-family="Helvetica,sans-Serif" font-size="10.00">CMatrix::rows</text>
</a>
</g>
</g>
<!-- Node1&#45;&gt;Node5 -->
<g id="edge4" class="edge">
<title>Node1&#45;&gt;Node5</title>
<path fill="none" stroke="midnightblue" d="M66.45,-57.35C82.73,-49.39 106.68,-38 128,-29 132.56,-27.08 137.39,-25.14 142.18,-23.27"/>
<polygon fill="midnightblue" stroke="midnightblue" points="143.78,-26.41 151.87,-19.57 141.28,-19.87 143.78,-26.41"/>
</g>
</g>
</svg>
