<?xml version="1.0" encoding="UTF-8" standalone="no"?>
<!DOCTYPE svg PUBLIC "-//W3C//DTD SVG 1.1//EN"
 "http://www.w3.org/Graphics/SVG/1.1/DTD/svg11.dtd">
<!-- Generated by graphviz version 3.0.0 (0)
 -->
<!-- Title: CMatrix::clearMemory Pages: 1 -->
<svg width="530pt" height="66pt"
 viewBox="0.00 0.00 530.00 66.00" xmlns="http://www.w3.org/2000/svg" xmlns:xlink="http://www.w3.org/1999/xlink">
<g id="graph0" class="graph" transform="scale(1 1) rotate(0) translate(4 62)">
<title>CMatrix::clearMemory</title>
<polygon fill="white" stroke="transparent" points="-4,4 -4,-62 526,-62 526,4 -4,4"/>
<!-- Node1 -->
<g id="node1" class="node">
<title>Node1</title>
<g id="a_node1"><a xlink:title=" ">
<polygon fill="#bfbfbf" stroke="black" points="397,-19.5 397,-38.5 522,-38.5 522,-19.5 397,-19.5"/>
<text text-anchor="middle" x="459.5" y="-26.5" font-family="Helvetica,sans-Serif" font-size="10.00">CMatrix::clearMemory</text>
</a>
</g>
</g>
<!-- Node2 -->
<g id="node2" class="node">
<title>Node2</title>
<g id="a_node2"><a xlink:href="classCMatrix.html#a6257aec883193efe8bb16179548cb95a" target="_top" xlink:title=" ">
<polygon fill="white" stroke="black" points="265,-19.5 265,-38.5 361,-38.5 361,-19.5 265,-19.5"/>
<text text-anchor="middle" x="313" y="-26.5" font-family="Helvetica,sans-Serif" font-size="10.00">CMatrix::findDet</text>
</a>
</g>
</g>
<!-- Node1&#45;&gt;Node2 -->
<g id="edge1" class="edge">
<title>Node1&#45;&gt;Node2</title>
<path fill="none" stroke="midnightblue" d="M386.64,-29C377.96,-29 369.26,-29 361.07,-29"/>
<polygon fill="midnightblue" stroke="midnightblue" points="386.8,-32.5 396.8,-29 386.8,-25.5 386.8,-32.5"/>
</g>
<!-- Node2&#45;&gt;Node2 -->
<g id="edge5" class="edge">
<title>Node2&#45;&gt;Node2</title>
<path fill="none" stroke="midnightblue" d="M336.44,-48.03C335.16,-53.13 327.35,-57 313,-57 290.61,-57 284.13,-47.57 293.58,-38.76"/>
<polygon fill="midnightblue" stroke="midnightblue" points="339.61,-46.54 332.42,-38.76 333.18,-49.32 339.61,-46.54"/>
</g>
<!-- Node3 -->
<g id="node3" class="node">
<title>Node3</title>
<g id="a_node3"><a xlink:href="classCMatrix.html#a51d61d2086432363578c02bfa7072f9d" target="_top" xlink:title=" ">
<polygon fill="white" stroke="black" points="147,-0.5 147,-19.5 225,-19.5 225,-0.5 147,-0.5"/>
<text text-anchor="middle" x="186" y="-7.5" font-family="Helvetica,sans-Serif" font-size="10.00">CMatrix::Det</text>
</a>
</g>
</g>
<!-- Node2&#45;&gt;Node3 -->
<g id="edge2" class="edge">
<title>Node2&#45;&gt;Node3</title>
<path fill="none" stroke="midnightblue" d="M254.55,-20.27C244.66,-18.76 234.61,-17.24 225.38,-15.83"/>
<polygon fill="midnightblue" stroke="midnightblue" points="254.33,-23.77 264.74,-21.82 255.38,-16.85 254.33,-23.77"/>
</g>
<!-- Node6 -->
<g id="node6" class="node">
<title>Node6</title>
<g id="a_node6"><a xlink:href="classCMatrix.html#a379c904f29464580d2913e892626e0a1" target="_top" xlink:title=" ">
<polygon fill="white" stroke="black" points="143,-38.5 143,-57.5 229,-57.5 229,-38.5 143,-38.5"/>
<text text-anchor="middle" x="186" y="-45.5" font-family="Helvetica,sans-Serif" font-size="10.00">CMatrix::Rank</text>
</a>
</g>
</g>
<!-- Node2&#45;&gt;Node6 -->
<g id="edge6" class="edge">
<title>Node2&#45;&gt;Node6</title>
<path fill="none" stroke="midnightblue" d="M254.8,-37.69C246.25,-38.99 237.57,-40.31 229.4,-41.56"/>
<polygon fill="midnightblue" stroke="midnightblue" points="255.38,-41.15 264.74,-36.18 254.33,-34.23 255.38,-41.15"/>
</g>
<!-- Node4 -->
<g id="node4" class="node">
<title>Node4</title>
<g id="a_node4"><a xlink:href="classCMatrix.html#abd58298df23c98b8675a81a70c6f140b" target="_top" xlink:title=" ">
<polygon fill="white" stroke="black" points="5,-38.5 5,-57.5 102,-57.5 102,-38.5 5,-38.5"/>
<text text-anchor="middle" x="53.5" y="-45.5" font-family="Helvetica,sans-Serif" font-size="10.00">CMatrix::Inverse</text>
</a>
</g>
</g>
<!-- Node3&#45;&gt;Node4 -->
<g id="edge3" class="edge">
<title>Node3&#45;&gt;Node4</title>
<path fill="none" stroke="midnightblue" d="M142.45,-22.39C124.58,-27.59 104.11,-33.55 87.42,-38.41"/>
<polygon fill="midnightblue" stroke="midnightblue" points="143.45,-25.75 152.07,-19.59 141.49,-19.02 143.45,-25.75"/>
</g>
<!-- Node5 -->
<g id="node5" class="node">
<title>Node5</title>
<g id="a_node5"><a xlink:href="classCMatrix.html#a03e87c1c9ab789c6f79f4aa898086a73" target="_top" xlink:title=" ">
<polygon fill="white" stroke="black" points="0,-0.5 0,-19.5 107,-19.5 107,-0.5 0,-0.5"/>
<text text-anchor="middle" x="53.5" y="-7.5" font-family="Helvetica,sans-Serif" font-size="10.00">CMatrix::IsRegular</text>
</a>
</g>
</g>
<!-- Node3&#45;&gt;Node5 -->
<g id="edge4" class="edge">
<title>Node3&#45;&gt;Node5</title>
<path fill="none" stroke="midnightblue" d="M136.78,-10C127.22,-10 117.14,-10 107.44,-10"/>
<polygon fill="midnightblue" stroke="midnightblue" points="136.9,-13.5 146.9,-10 136.9,-6.5 136.9,-13.5"/>
</g>
<!-- Node6&#45;&gt;Node4 -->
<g id="edge7" class="edge">
<title>Node6&#45;&gt;Node4</title>
<path fill="none" stroke="midnightblue" d="M132.72,-48C122.68,-48 112.22,-48 102.33,-48"/>
<polygon fill="midnightblue" stroke="midnightblue" points="132.99,-51.5 142.99,-48 132.99,-44.5 132.99,-51.5"/>
</g>
</g>
</svg>
