<?xml version="1.0" encoding="UTF-8" standalone="no"?>
<!DOCTYPE svg PUBLIC "-//W3C//DTD SVG 1.1//EN"
 "http://www.w3.org/Graphics/SVG/1.1/DTD/svg11.dtd">
<!-- Generated by graphviz version 3.0.0 (0)
 -->
<!-- Title: CMatrix::IsSquare Pages: 1 -->
<svg width="382pt" height="208pt"
 viewBox="0.00 0.00 382.00 208.00" xmlns="http://www.w3.org/2000/svg" xmlns:xlink="http://www.w3.org/1999/xlink">
<g id="graph0" class="graph" transform="scale(1 1) rotate(0) translate(4 204)">
<title>CMatrix::IsSquare</title>
<polygon fill="white" stroke="transparent" points="-4,4 -4,-204 378,-204 378,4 -4,4"/>
<!-- Node1 -->
<g id="node1" class="node">
<title>Node1</title>
<g id="a_node1"><a xlink:title=" ">
<polygon fill="#bfbfbf" stroke="black" points="271,-95.5 271,-114.5 374,-114.5 374,-95.5 271,-95.5"/>
<text text-anchor="middle" x="322.5" y="-102.5" font-family="Helvetica,sans-Serif" font-size="10.00">CMatrix::IsSquare</text>
</a>
</g>
</g>
<!-- Node2 -->
<g id="node2" class="node">
<title>Node2</title>
<g id="a_node2"><a xlink:href="classCMatrix.html#a51d61d2086432363578c02bfa7072f9d" target="_top" xlink:title=" ">
<polygon fill="white" stroke="black" points="150,-152.5 150,-171.5 228,-171.5 228,-152.5 150,-152.5"/>
<text text-anchor="middle" x="189" y="-159.5" font-family="Helvetica,sans-Serif" font-size="10.00">CMatrix::Det</text>
</a>
</g>
</g>
<!-- Node1&#45;&gt;Node2 -->
<g id="edge1" class="edge">
<title>Node1&#45;&gt;Node2</title>
<path fill="none" stroke="midnightblue" d="M290.08,-118.62C266.02,-129.05 233.44,-143.17 212.08,-152.43"/>
<polygon fill="midnightblue" stroke="midnightblue" points="291.71,-121.73 299.49,-114.54 288.92,-115.31 291.71,-121.73"/>
</g>
<!-- Node3 -->
<g id="node3" class="node">
<title>Node3</title>
<g id="a_node3"><a xlink:href="classCMatrix.html#abd58298df23c98b8675a81a70c6f140b" target="_top" xlink:title=" ">
<polygon fill="white" stroke="black" points="5,-180.5 5,-199.5 102,-199.5 102,-180.5 5,-180.5"/>
<text text-anchor="middle" x="53.5" y="-187.5" font-family="Helvetica,sans-Serif" font-size="10.00">CMatrix::Inverse</text>
</a>
</g>
</g>
<!-- Node1&#45;&gt;Node3 -->
<g id="edge4" class="edge">
<title>Node1&#45;&gt;Node3</title>
<path fill="none" stroke="midnightblue" d="M307.58,-122.86C292.1,-141.2 265.25,-168.73 235,-181 192.55,-198.22 139.81,-198.72 102.33,-195.98"/>
<polygon fill="midnightblue" stroke="midnightblue" points="310.63,-124.66 314.23,-114.7 305.2,-120.24 310.63,-124.66"/>
</g>
<!-- Node4 -->
<g id="node4" class="node">
<title>Node4</title>
<g id="a_node4"><a xlink:href="classCMatrix.html#a03e87c1c9ab789c6f79f4aa898086a73" target="_top" xlink:title=" ">
<polygon fill="white" stroke="black" points="0,-133.5 0,-152.5 107,-152.5 107,-133.5 0,-133.5"/>
<text text-anchor="middle" x="53.5" y="-140.5" font-family="Helvetica,sans-Serif" font-size="10.00">CMatrix::IsRegular</text>
</a>
</g>
</g>
<!-- Node1&#45;&gt;Node4 -->
<g id="edge5" class="edge">
<title>Node1&#45;&gt;Node4</title>
<path fill="none" stroke="midnightblue" d="M261.05,-113.6C214.7,-120.2 151.38,-129.21 107.11,-135.51"/>
<polygon fill="midnightblue" stroke="midnightblue" points="261.56,-117.07 270.97,-112.19 260.57,-110.14 261.56,-117.07"/>
</g>
<!-- Node5 -->
<g id="node5" class="node">
<title>Node5</title>
<g id="a_node5"><a xlink:href="classCMatrix.html#a29e1f4a97fd559d63acf4c6396fbf336" target="_top" xlink:title=" ">
<polygon fill="white" stroke="black" points="143,-76.5 143,-95.5 235,-95.5 235,-76.5 143,-76.5"/>
<text text-anchor="middle" x="189" y="-83.5" font-family="Helvetica,sans-Serif" font-size="10.00">CMatrix::Merge</text>
</a>
</g>
</g>
<!-- Node1&#45;&gt;Node5 -->
<g id="edge6" class="edge">
<title>Node1&#45;&gt;Node5</title>
<path fill="none" stroke="midnightblue" d="M260.66,-96.21C252.06,-94.97 243.36,-93.71 235.13,-92.52"/>
<polygon fill="midnightblue" stroke="midnightblue" points="260.26,-99.69 270.66,-97.65 261.26,-92.76 260.26,-99.69"/>
</g>
<!-- Node7 -->
<g id="node7" class="node">
<title>Node7</title>
<g id="a_node7"><a xlink:href="classCMatrix.html#a34ff76d4480d2f77de32d6b0972405a7" target="_top" xlink:title=" ">
<polygon fill="white" stroke="black" points="143.5,-38.5 143.5,-57.5 234.5,-57.5 234.5,-38.5 143.5,-38.5"/>
<text text-anchor="middle" x="189" y="-45.5" font-family="Helvetica,sans-Serif" font-size="10.00">CMatrix::Power</text>
</a>
</g>
</g>
<!-- Node1&#45;&gt;Node7 -->
<g id="edge8" class="edge">
<title>Node1&#45;&gt;Node7</title>
<path fill="none" stroke="midnightblue" d="M290.67,-91.33C274.18,-84.05 253.51,-74.97 235,-67 227.83,-63.91 220.01,-60.59 212.92,-57.6"/>
<polygon fill="midnightblue" stroke="midnightblue" points="289.29,-94.54 299.85,-95.39 292.12,-88.14 289.29,-94.54"/>
</g>
<!-- Node8 -->
<g id="node8" class="node">
<title>Node8</title>
<g id="a_node8"><a xlink:href="classCMatrix.html#aa34008541834d3fff9b8c9c889984770" target="_top" xlink:title=" ">
<polygon fill="white" stroke="black" points="149,-0.5 149,-19.5 229,-19.5 229,-0.5 149,-0.5"/>
<text text-anchor="middle" x="189" y="-7.5" font-family="Helvetica,sans-Serif" font-size="10.00">CMatrix::Rad</text>
</a>
</g>
</g>
<!-- Node1&#45;&gt;Node8 -->
<g id="edge9" class="edge">
<title>Node1&#45;&gt;Node8</title>
<path fill="none" stroke="midnightblue" d="M305.51,-88.07C289.06,-71.38 262.07,-45.98 235,-29 229.4,-25.49 223.03,-22.35 216.89,-19.69"/>
<polygon fill="midnightblue" stroke="midnightblue" points="303.23,-90.74 312.7,-95.49 308.26,-85.87 303.23,-90.74"/>
</g>
<!-- Node2&#45;&gt;Node3 -->
<g id="edge2" class="edge">
<title>Node2&#45;&gt;Node3</title>
<path fill="none" stroke="midnightblue" d="M139.6,-172.15C126.62,-174.87 112.65,-177.8 99.85,-180.49"/>
<polygon fill="midnightblue" stroke="midnightblue" points="140.68,-175.5 149.74,-170.02 139.24,-168.65 140.68,-175.5"/>
</g>
<!-- Node2&#45;&gt;Node4 -->
<g id="edge3" class="edge">
<title>Node2&#45;&gt;Node4</title>
<path fill="none" stroke="midnightblue" d="M139.83,-155.14C129.23,-153.64 117.95,-152.03 107.19,-150.5"/>
<polygon fill="midnightblue" stroke="midnightblue" points="139.35,-158.61 149.74,-156.56 140.34,-151.68 139.35,-158.61"/>
</g>
<!-- Node6 -->
<g id="node6" class="node">
<title>Node6</title>
<g id="a_node6"><a xlink:href="main_8cpp.html#abf9e6b7e6f15df4b525a2e7705ba3089" target="_top" xlink:title=" ">
<polygon fill="white" stroke="black" points="33,-76.5 33,-95.5 74,-95.5 74,-76.5 33,-76.5"/>
<text text-anchor="middle" x="53.5" y="-83.5" font-family="Helvetica,sans-Serif" font-size="10.00">main</text>
</a>
</g>
</g>
<!-- Node5&#45;&gt;Node6 -->
<g id="edge7" class="edge">
<title>Node5&#45;&gt;Node6</title>
<path fill="none" stroke="midnightblue" d="M132.78,-86C112.03,-86 89.75,-86 74.29,-86"/>
<polygon fill="midnightblue" stroke="midnightblue" points="132.8,-89.5 142.8,-86 132.8,-82.5 132.8,-89.5"/>
</g>
</g>
</svg>
