<?xml version="1.0" encoding="UTF-8" standalone="no"?>
<!DOCTYPE svg PUBLIC "-//W3C//DTD SVG 1.1//EN"
 "http://www.w3.org/Graphics/SVG/1.1/DTD/svg11.dtd">
<!-- Generated by graphviz version 3.0.0 (0)
 -->
<!-- Title: CGem::RunGem Pages: 1 -->
<svg width="380pt" height="104pt"
 viewBox="0.00 0.00 380.00 104.00" xmlns="http://www.w3.org/2000/svg" xmlns:xlink="http://www.w3.org/1999/xlink">
<g id="graph0" class="graph" transform="scale(1 1) rotate(0) translate(4 100)">
<title>CGem::RunGem</title>
<polygon fill="white" stroke="transparent" points="-4,4 -4,-100 376,-100 376,4 -4,4"/>
<!-- Node1 -->
<g id="node1" class="node">
<title>Node1</title>
<g id="a_node1"><a xlink:title=" ">
<polygon fill="#bfbfbf" stroke="black" points="0,-19.5 0,-38.5 95,-38.5 95,-19.5 0,-19.5"/>
<text text-anchor="middle" x="47.5" y="-26.5" font-family="Helvetica,sans-Serif" font-size="10.00">CGem::RunGem</text>
</a>
</g>
</g>
<!-- Node2 -->
<g id="node2" class="node">
<title>Node2</title>
<g id="a_node2"><a xlink:href="classCGem.html#ab4338e6e655c2d725ae24bbe6bad706a" target="_top" xlink:title=" ">
<polygon fill="white" stroke="black" points="131,-38.5 131,-57.5 252,-57.5 252,-38.5 131,-38.5"/>
<text text-anchor="middle" x="191.5" y="-45.5" font-family="Helvetica,sans-Serif" font-size="10.00">CGem::CheckForGem</text>
</a>
</g>
</g>
<!-- Node1&#45;&gt;Node2 -->
<g id="edge1" class="edge">
<title>Node1&#45;&gt;Node2</title>
<path fill="none" stroke="midnightblue" d="M95.39,-35.27C103.58,-36.37 112.25,-37.53 120.89,-38.69"/>
<polygon fill="midnightblue" stroke="midnightblue" points="120.62,-42.18 131,-40.04 121.55,-35.24 120.62,-42.18"/>
</g>
<!-- Node5 -->
<g id="node5" class="node">
<title>Node5</title>
<g id="a_node5"><a xlink:href="classCMatrix.html#aa92a003472da7e4a0533c1bef86f77ef" target="_top" xlink:title=" ">
<polygon fill="white" stroke="black" points="150,-0.5 150,-19.5 233,-19.5 233,-0.5 150,-0.5"/>
<text text-anchor="middle" x="191.5" y="-7.5" font-family="Helvetica,sans-Serif" font-size="10.00">CMatrix::GEM</text>
</a>
</g>
</g>
<!-- Node1&#45;&gt;Node5 -->
<g id="edge4" class="edge">
<title>Node1&#45;&gt;Node5</title>
<path fill="none" stroke="midnightblue" d="M95.39,-22.73C109.56,-20.83 125.19,-18.74 139.61,-16.81"/>
<polygon fill="midnightblue" stroke="midnightblue" points="140.41,-20.23 149.85,-15.44 139.48,-13.3 140.41,-20.23"/>
</g>
<!-- Node3 -->
<g id="node3" class="node">
<title>Node3</title>
<g id="a_node3"><a xlink:href="classCMatrix.html#af7ad82a26f27d7f9aeafc099ae13bcbc" target="_top" xlink:title=" ">
<polygon fill="white" stroke="black" points="290,-76.5 290,-95.5 370,-95.5 370,-76.5 290,-76.5"/>
<text text-anchor="middle" x="330" y="-83.5" font-family="Helvetica,sans-Serif" font-size="10.00">CMatrix::cols</text>
</a>
</g>
</g>
<!-- Node2&#45;&gt;Node3 -->
<g id="edge2" class="edge">
<title>Node2&#45;&gt;Node3</title>
<path fill="none" stroke="midnightblue" d="M226.94,-57.59C244.48,-62.47 266.01,-68.46 284.76,-73.68"/>
<polygon fill="midnightblue" stroke="midnightblue" points="283.99,-77.1 294.57,-76.41 285.87,-70.36 283.99,-77.1"/>
</g>
<!-- Node4 -->
<g id="node4" class="node">
<title>Node4</title>
<g id="a_node4"><a xlink:href="classCMatrix.html#a119114ca80cc672072f278ef110a1605" target="_top" xlink:title=" ">
<polygon fill="white" stroke="black" points="288,-38.5 288,-57.5 372,-57.5 372,-38.5 288,-38.5"/>
<text text-anchor="middle" x="330" y="-45.5" font-family="Helvetica,sans-Serif" font-size="10.00">CMatrix::rows</text>
</a>
</g>
</g>
<!-- Node2&#45;&gt;Node4 -->
<g id="edge3" class="edge">
<title>Node2&#45;&gt;Node4</title>
<path fill="none" stroke="midnightblue" d="M252.37,-48C260.73,-48 269.26,-48 277.45,-48"/>
<polygon fill="midnightblue" stroke="midnightblue" points="277.6,-51.5 287.6,-48 277.6,-44.5 277.6,-51.5"/>
</g>
<!-- Node6 -->
<g id="node6" class="node">
<title>Node6</title>
<g id="a_node6"><a xlink:href="classCMatrix.html#ab5ac6d4c06b0f182f64d628ec899c4f5" target="_top" xlink:title=" ">
<polygon fill="white" stroke="black" points="288.5,-0.5 288.5,-19.5 371.5,-19.5 371.5,-0.5 288.5,-0.5"/>
<text text-anchor="middle" x="330" y="-7.5" font-family="Helvetica,sans-Serif" font-size="10.00">CMatrix::data</text>
</a>
</g>
</g>
<!-- Node5&#45;&gt;Node6 -->
<g id="edge5" class="edge">
<title>Node5&#45;&gt;Node6</title>
<path fill="none" stroke="midnightblue" d="M233.08,-10C247.26,-10 263.35,-10 278.25,-10"/>
<polygon fill="midnightblue" stroke="midnightblue" points="278.34,-13.5 288.34,-10 278.34,-6.5 278.34,-13.5"/>
</g>
</g>
</svg>
