<?xml version="1.0" encoding="UTF-8" standalone="no"?>
<!DOCTYPE svg PUBLIC "-//W3C//DTD SVG 1.1//EN"
 "http://www.w3.org/Graphics/SVG/1.1/DTD/svg11.dtd">
<!-- Generated by graphviz version 3.0.0 (0)
 -->
<!-- Title: CMatrix::IsRegular Pages: 1 -->
<svg width="529pt" height="84pt"
 viewBox="0.00 0.00 529.00 84.00" xmlns="http://www.w3.org/2000/svg" xmlns:xlink="http://www.w3.org/1999/xlink">
<g id="graph0" class="graph" transform="scale(1 1) rotate(0) translate(4 80)">
<title>CMatrix::IsRegular</title>
<polygon fill="white" stroke="transparent" points="-4,4 -4,-80 525,-80 525,4 -4,4"/>
<!-- Node1 -->
<g id="node1" class="node">
<title>Node1</title>
<g id="a_node1"><a xlink:title=" ">
<polygon fill="#bfbfbf" stroke="black" points="0,-19.5 0,-38.5 107,-38.5 107,-19.5 0,-19.5"/>
<text text-anchor="middle" x="53.5" y="-26.5" font-family="Helvetica,sans-Serif" font-size="10.00">CMatrix::IsRegular</text>
</a>
</g>
</g>
<!-- Node2 -->
<g id="node2" class="node">
<title>Node2</title>
<g id="a_node2"><a xlink:href="classCMatrix.html#a51d61d2086432363578c02bfa7072f9d" target="_top" xlink:title=" ">
<polygon fill="white" stroke="black" points="143,-38.5 143,-57.5 221,-57.5 221,-38.5 143,-38.5"/>
<text text-anchor="middle" x="182" y="-45.5" font-family="Helvetica,sans-Serif" font-size="10.00">CMatrix::Det</text>
</a>
</g>
</g>
<!-- Node1&#45;&gt;Node2 -->
<g id="edge1" class="edge">
<title>Node1&#45;&gt;Node2</title>
<path fill="none" stroke="midnightblue" d="M107.05,-36.89C115.54,-38.17 124.3,-39.48 132.69,-40.74"/>
<polygon fill="midnightblue" stroke="midnightblue" points="132.28,-44.22 142.69,-42.25 133.32,-37.3 132.28,-44.22"/>
</g>
<!-- Node5 -->
<g id="node5" class="node">
<title>Node5</title>
<g id="a_node5"><a xlink:href="classCMatrix.html#ad6d9d5756b2d75a733715a987e5ea944" target="_top" xlink:title=" ">
<polygon fill="white" stroke="black" points="257,-0.5 257,-19.5 360,-19.5 360,-0.5 257,-0.5"/>
<text text-anchor="middle" x="308.5" y="-7.5" font-family="Helvetica,sans-Serif" font-size="10.00">CMatrix::IsSquare</text>
</a>
</g>
</g>
<!-- Node1&#45;&gt;Node5 -->
<g id="edge6" class="edge">
<title>Node1&#45;&gt;Node5</title>
<path fill="none" stroke="midnightblue" d="M107.23,-25.04C147.9,-21.99 204.21,-17.76 246.77,-14.56"/>
<polygon fill="midnightblue" stroke="midnightblue" points="247.29,-18.03 257,-13.79 246.76,-11.05 247.29,-18.03"/>
</g>
<!-- Node3 -->
<g id="node3" class="node">
<title>Node3</title>
<g id="a_node3"><a xlink:href="classCMatrix.html#a6257aec883193efe8bb16179548cb95a" target="_top" xlink:title=" ">
<polygon fill="white" stroke="black" points="260.5,-38.5 260.5,-57.5 356.5,-57.5 356.5,-38.5 260.5,-38.5"/>
<text text-anchor="middle" x="308.5" y="-45.5" font-family="Helvetica,sans-Serif" font-size="10.00">CMatrix::findDet</text>
</a>
</g>
</g>
<!-- Node2&#45;&gt;Node3 -->
<g id="edge2" class="edge">
<title>Node2&#45;&gt;Node3</title>
<path fill="none" stroke="midnightblue" d="M221.03,-48C230.27,-48 240.34,-48 250.25,-48"/>
<polygon fill="midnightblue" stroke="midnightblue" points="250.47,-51.5 260.47,-48 250.47,-44.5 250.47,-51.5"/>
</g>
<!-- Node2&#45;&gt;Node5 -->
<g id="edge5" class="edge">
<title>Node2&#45;&gt;Node5</title>
<path fill="none" stroke="midnightblue" d="M214.42,-38.41C230.19,-33.6 249.51,-27.7 266.44,-22.53"/>
<polygon fill="midnightblue" stroke="midnightblue" points="267.55,-25.85 276.09,-19.59 265.51,-19.16 267.55,-25.85"/>
</g>
<!-- Node3&#45;&gt;Node3 -->
<g id="edge4" class="edge">
<title>Node3&#45;&gt;Node3</title>
<path fill="none" stroke="midnightblue" d="M289.08,-57.76C279.63,-66.57 286.11,-76 308.5,-76 322.85,-76 330.66,-72.13 331.94,-67.03"/>
<polygon fill="midnightblue" stroke="midnightblue" points="335.11,-65.54 327.92,-57.76 328.68,-68.32 335.11,-65.54"/>
</g>
<!-- Node4 -->
<g id="node4" class="node">
<title>Node4</title>
<g id="a_node4"><a xlink:href="classCMatrix.html#afd6e6fa2821f447165ece8e5c1f90ef1" target="_top" xlink:title=" ">
<polygon fill="white" stroke="black" points="396,-38.5 396,-57.5 521,-57.5 521,-38.5 396,-38.5"/>
<text text-anchor="middle" x="458.5" y="-45.5" font-family="Helvetica,sans-Serif" font-size="10.00">CMatrix::clearMemory</text>
</a>
</g>
</g>
<!-- Node3&#45;&gt;Node4 -->
<g id="edge3" class="edge">
<title>Node3&#45;&gt;Node4</title>
<path fill="none" stroke="midnightblue" d="M356.74,-48C365.96,-48 375.84,-48 385.66,-48"/>
<polygon fill="midnightblue" stroke="midnightblue" points="385.84,-51.5 395.84,-48 385.84,-44.5 385.84,-51.5"/>
</g>
</g>
</svg>
