<?xml version="1.0" encoding="UTF-8" standalone="no"?>
<!DOCTYPE svg PUBLIC "-//W3C//DTD SVG 1.1//EN"
 "http://www.w3.org/Graphics/SVG/1.1/DTD/svg11.dtd">
<!-- Generated by graphviz version 3.0.0 (0)
 -->
<!-- Title: CMatrix::data Pages: 1 -->
<svg width="540pt" height="208pt"
 viewBox="0.00 0.00 540.00 208.00" xmlns="http://www.w3.org/2000/svg" xmlns:xlink="http://www.w3.org/1999/xlink">
<g id="graph0" class="graph" transform="scale(1 1) rotate(0) translate(4 204)">
<title>CMatrix::data</title>
<polygon fill="white" stroke="transparent" points="-4,4 -4,-204 536,-204 536,4 -4,4"/>
<!-- Node1 -->
<g id="node1" class="node">
<title>Node1</title>
<g id="a_node1"><a xlink:title=" ">
<polygon fill="#bfbfbf" stroke="black" points="449,-85.5 449,-104.5 532,-104.5 532,-85.5 449,-85.5"/>
<text text-anchor="middle" x="490.5" y="-92.5" font-family="Helvetica,sans-Serif" font-size="10.00">CMatrix::data</text>
</a>
</g>
</g>
<!-- Node2 -->
<g id="node2" class="node">
<title>Node2</title>
<g id="a_node2"><a xlink:href="classCMatrix.html#a5512665f8cf95c353362e70d82084d69" target="_top" xlink:title=" ">
<polygon fill="white" stroke="black" points="287.5,-180.5 287.5,-199.5 386.5,-199.5 386.5,-180.5 287.5,-180.5"/>
<text text-anchor="middle" x="337" y="-187.5" font-family="Helvetica,sans-Serif" font-size="10.00">CMatrix::CMatrix</text>
</a>
</g>
</g>
<!-- Node1&#45;&gt;Node2 -->
<g id="edge1" class="edge">
<title>Node1&#45;&gt;Node2</title>
<path fill="none" stroke="midnightblue" d="M476.32,-112.79C462.46,-130.21 439.08,-156.23 413,-171 404.93,-175.57 395.77,-179.05 386.68,-181.71"/>
<polygon fill="midnightblue" stroke="midnightblue" points="479.32,-114.62 482.66,-104.57 473.78,-110.35 479.32,-114.62"/>
</g>
<!-- Node3 -->
<g id="node3" class="node">
<title>Node3</title>
<g id="a_node3"><a xlink:href="classCMatrix.html#aa92a003472da7e4a0533c1bef86f77ef" target="_top" xlink:title=" ">
<polygon fill="white" stroke="black" points="295.5,-142.5 295.5,-161.5 378.5,-161.5 378.5,-142.5 295.5,-142.5"/>
<text text-anchor="middle" x="337" y="-149.5" font-family="Helvetica,sans-Serif" font-size="10.00">CMatrix::GEM</text>
</a>
</g>
</g>
<!-- Node1&#45;&gt;Node3 -->
<g id="edge2" class="edge">
<title>Node1&#45;&gt;Node3</title>
<path fill="none" stroke="midnightblue" d="M464.02,-109.37C449.43,-117.16 430.57,-126.5 413,-133 402.04,-137.06 389.87,-140.55 378.57,-143.4"/>
<polygon fill="midnightblue" stroke="midnightblue" points="465.83,-112.37 472.94,-104.51 462.49,-106.22 465.83,-112.37"/>
</g>
<!-- Node6 -->
<g id="node6" class="node">
<title>Node6</title>
<g id="a_node6"><a xlink:href="classCMatrix.html#a0251e36f5f38ac6bf9dbeb4718973664" target="_top" xlink:title=" ">
<polygon fill="white" stroke="black" points="261,-104.5 261,-123.5 413,-123.5 413,-104.5 261,-104.5"/>
<text text-anchor="middle" x="337" y="-111.5" font-family="Helvetica,sans-Serif" font-size="10.00">CMatrix::GEMsKomentarem</text>
</a>
</g>
</g>
<!-- Node1&#45;&gt;Node6 -->
<g id="edge5" class="edge">
<title>Node1&#45;&gt;Node6</title>
<path fill="none" stroke="midnightblue" d="M438.76,-101.36C430.54,-102.39 421.88,-103.48 413.23,-104.57"/>
<polygon fill="midnightblue" stroke="midnightblue" points="439.41,-104.81 448.9,-100.09 438.54,-97.86 439.41,-104.81"/>
</g>
<!-- Node8 -->
<g id="node8" class="node">
<title>Node8</title>
<g id="a_node8"><a xlink:href="classCMatrix.html#abd58298df23c98b8675a81a70c6f140b" target="_top" xlink:title=" ">
<polygon fill="white" stroke="black" points="288.5,-66.5 288.5,-85.5 385.5,-85.5 385.5,-66.5 288.5,-66.5"/>
<text text-anchor="middle" x="337" y="-73.5" font-family="Helvetica,sans-Serif" font-size="10.00">CMatrix::Inverse</text>
</a>
</g>
</g>
<!-- Node1&#45;&gt;Node8 -->
<g id="edge8" class="edge">
<title>Node1&#45;&gt;Node8</title>
<path fill="none" stroke="midnightblue" d="M438.55,-88.61C421.48,-86.47 402.52,-84.09 385.7,-81.98"/>
<polygon fill="midnightblue" stroke="midnightblue" points="438.54,-92.14 448.9,-89.91 439.41,-85.19 438.54,-92.14"/>
</g>
<!-- Node9 -->
<g id="node9" class="node">
<title>Node9</title>
<g id="a_node9"><a xlink:href="classCMatrix.html#a29e1f4a97fd559d63acf4c6396fbf336" target="_top" xlink:title=" ">
<polygon fill="white" stroke="black" points="105,-47.5 105,-66.5 197,-66.5 197,-47.5 105,-47.5"/>
<text text-anchor="middle" x="151" y="-54.5" font-family="Helvetica,sans-Serif" font-size="10.00">CMatrix::Merge</text>
</a>
</g>
</g>
<!-- Node1&#45;&gt;Node9 -->
<g id="edge9" class="edge">
<title>Node1&#45;&gt;Node9</title>
<path fill="none" stroke="midnightblue" d="M466.48,-80.05C451.82,-71.45 432.07,-61.47 413,-57 338.89,-39.61 249.65,-45.04 197.05,-50.83"/>
<polygon fill="midnightblue" stroke="midnightblue" points="464.96,-83.22 475.32,-85.44 468.6,-77.25 464.96,-83.22"/>
</g>
<!-- Node10 -->
<g id="node10" class="node">
<title>Node10</title>
<g id="a_node10"><a xlink:href="classCMatrix.html#aa618f0de91aaf18c0ceb23606b018e50" target="_top" xlink:title=" ">
<polygon fill="white" stroke="black" points="109.5,-0.5 109.5,-19.5 192.5,-19.5 192.5,-0.5 109.5,-0.5"/>
<text text-anchor="middle" x="151" y="-7.5" font-family="Helvetica,sans-Serif" font-size="10.00">CMatrix::Split</text>
</a>
</g>
</g>
<!-- Node1&#45;&gt;Node10 -->
<g id="edge11" class="edge">
<title>Node1&#45;&gt;Node10</title>
<path fill="none" stroke="midnightblue" d="M471.88,-78.66C457.26,-66.12 435.33,-49.57 413,-41 339.09,-12.63 245.48,-8.48 192.82,-8.75"/>
<polygon fill="midnightblue" stroke="midnightblue" points="469.78,-81.47 479.58,-85.48 474.42,-76.23 469.78,-81.47"/>
</g>
<!-- Node4 -->
<g id="node4" class="node">
<title>Node4</title>
<g id="a_node4"><a xlink:href="classCGem.html#a761f9fbce8991678298143a3472dee61" target="_top" xlink:title=" ">
<polygon fill="white" stroke="black" points="103.5,-137.5 103.5,-156.5 198.5,-156.5 198.5,-137.5 103.5,-137.5"/>
<text text-anchor="middle" x="151" y="-144.5" font-family="Helvetica,sans-Serif" font-size="10.00">CGem::RunGem</text>
</a>
</g>
</g>
<!-- Node3&#45;&gt;Node4 -->
<g id="edge3" class="edge">
<title>Node3&#45;&gt;Node4</title>
<path fill="none" stroke="midnightblue" d="M285.1,-150.62C258.02,-149.88 224.96,-148.98 198.56,-148.27"/>
<polygon fill="midnightblue" stroke="midnightblue" points="285.07,-154.12 295.16,-150.89 285.26,-147.12 285.07,-154.12"/>
</g>
<!-- Node5 -->
<g id="node5" class="node">
<title>Node5</title>
<g id="a_node5"><a xlink:href="main_8cpp.html#abf9e6b7e6f15df4b525a2e7705ba3089" target="_top" xlink:title=" ">
<polygon fill="white" stroke="black" points="0,-66.5 0,-85.5 41,-85.5 41,-66.5 0,-66.5"/>
<text text-anchor="middle" x="20.5" y="-73.5" font-family="Helvetica,sans-Serif" font-size="10.00">main</text>
</a>
</g>
</g>
<!-- Node4&#45;&gt;Node5 -->
<g id="edge4" class="edge">
<title>Node4&#45;&gt;Node5</title>
<path fill="none" stroke="midnightblue" d="M102.08,-134.19C93.48,-131.07 84.78,-127.35 77,-123 58.71,-112.77 40.8,-96.04 30.47,-85.55"/>
<polygon fill="midnightblue" stroke="midnightblue" points="101.1,-137.55 111.69,-137.45 103.35,-130.92 101.1,-137.55"/>
</g>
<!-- Node7 -->
<g id="node7" class="node">
<title>Node7</title>
<g id="a_node7"><a xlink:href="classCGemKomentare.html#a249425fa1a32afb535ad72f2f2419724" target="_top" xlink:title=" ">
<polygon fill="white" stroke="black" points="77,-94.5 77,-113.5 225,-113.5 225,-94.5 77,-94.5"/>
<text text-anchor="middle" x="151" y="-101.5" font-family="Helvetica,sans-Serif" font-size="10.00">CGemKomentare::RunGem</text>
</a>
</g>
</g>
<!-- Node6&#45;&gt;Node7 -->
<g id="edge6" class="edge">
<title>Node6&#45;&gt;Node7</title>
<path fill="none" stroke="midnightblue" d="M250.84,-109.37C242.24,-108.9 233.55,-108.43 225.08,-107.97"/>
<polygon fill="midnightblue" stroke="midnightblue" points="250.72,-112.87 260.89,-109.92 251.1,-105.88 250.72,-112.87"/>
</g>
<!-- Node7&#45;&gt;Node5 -->
<g id="edge7" class="edge">
<title>Node7&#45;&gt;Node5</title>
<path fill="none" stroke="midnightblue" d="M96.36,-92.31C76.78,-88.05 55.85,-83.48 41.11,-80.27"/>
<polygon fill="midnightblue" stroke="midnightblue" points="95.62,-95.73 106.14,-94.44 97.11,-88.89 95.62,-95.73"/>
</g>
<!-- Node9&#45;&gt;Node5 -->
<g id="edge10" class="edge">
<title>Node9&#45;&gt;Node5</title>
<path fill="none" stroke="midnightblue" d="M94.61,-65.19C75.64,-68 55.61,-70.96 41.33,-73.07"/>
<polygon fill="midnightblue" stroke="midnightblue" points="95.32,-68.62 104.7,-63.7 94.29,-61.7 95.32,-68.62"/>
</g>
<!-- Node10&#45;&gt;Node5 -->
<g id="edge12" class="edge">
<title>Node10&#45;&gt;Node5</title>
<path fill="none" stroke="midnightblue" d="M110.97,-23.04C99.76,-27.3 87.69,-32.39 77,-38 61.28,-46.25 44.66,-58.1 33.76,-66.37"/>
<polygon fill="midnightblue" stroke="midnightblue" points="112.36,-26.26 120.54,-19.52 109.94,-19.69 112.36,-26.26"/>
</g>
</g>
</svg>
