<?xml version="1.0" encoding="UTF-8" standalone="no"?>
<!DOCTYPE svg PUBLIC "-//W3C//DTD SVG 1.1//EN"
 "http://www.w3.org/Graphics/SVG/1.1/DTD/svg11.dtd">
<!-- Generated by graphviz version 3.0.0 (0)
 -->
<!-- Title: CMatrix::findDet Pages: 1 -->
<svg width="265pt" height="46pt"
 viewBox="0.00 0.00 265.00 46.00" xmlns="http://www.w3.org/2000/svg" xmlns:xlink="http://www.w3.org/1999/xlink">
<g id="graph0" class="graph" transform="scale(1 1) rotate(0) translate(4 42)">
<title>CMatrix::findDet</title>
<polygon fill="white" stroke="transparent" points="-4,4 -4,-42 261,-42 261,4 -4,4"/>
<!-- Node1 -->
<g id="node1" class="node">
<title>Node1</title>
<g id="a_node1"><a xlink:title=" ">
<polygon fill="#bfbfbf" stroke="black" points="0,-0.5 0,-19.5 96,-19.5 96,-0.5 0,-0.5"/>
<text text-anchor="middle" x="48" y="-7.5" font-family="Helvetica,sans-Serif" font-size="10.00">CMatrix::findDet</text>
</a>
</g>
</g>
<!-- Node1&#45;&gt;Node1 -->
<g id="edge2" class="edge">
<title>Node1&#45;&gt;Node1</title>
<path fill="none" stroke="midnightblue" d="M25.5,-19.76C14.55,-28.57 22.05,-38 48,-38 65.03,-38 74.11,-33.94 75.25,-28.65"/>
<polygon fill="midnightblue" stroke="midnightblue" points="78.3,-26.93 70.5,-19.76 72.12,-30.23 78.3,-26.93"/>
</g>
<!-- Node2 -->
<g id="node2" class="node">
<title>Node2</title>
<g id="a_node2"><a xlink:href="classCMatrix.html#afd6e6fa2821f447165ece8e5c1f90ef1" target="_top" xlink:title=" ">
<polygon fill="white" stroke="black" points="132,-0.5 132,-19.5 257,-19.5 257,-0.5 132,-0.5"/>
<text text-anchor="middle" x="194.5" y="-7.5" font-family="Helvetica,sans-Serif" font-size="10.00">CMatrix::clearMemory</text>
</a>
</g>
</g>
<!-- Node1&#45;&gt;Node2 -->
<g id="edge1" class="edge">
<title>Node1&#45;&gt;Node2</title>
<path fill="none" stroke="midnightblue" d="M96.31,-10C104.48,-10 113.13,-10 121.77,-10"/>
<polygon fill="midnightblue" stroke="midnightblue" points="121.87,-13.5 131.87,-10 121.87,-6.5 121.87,-13.5"/>
</g>
</g>
</svg>
