<?xml version="1.0" encoding="UTF-8" standalone="no"?>
<!DOCTYPE svg PUBLIC "-//W3C//DTD SVG 1.1//EN"
 "http://www.w3.org/Graphics/SVG/1.1/DTD/svg11.dtd">
<!-- Generated by graphviz version 3.0.0 (0)
 -->
<!-- Title: src/DiffMatrix.h Pages: 1 -->
<svg width="418pt" height="140pt"
 viewBox="0.00 0.00 418.00 140.00" xmlns="http://www.w3.org/2000/svg" xmlns:xlink="http://www.w3.org/1999/xlink">
<g id="graph0" class="graph" transform="scale(1 1) rotate(0) translate(4 136)">
<title>src/DiffMatrix.h</title>
<polygon fill="white" stroke="transparent" points="-4,4 -4,-136 414,-136 414,4 -4,4"/>
<!-- Node1 -->
<g id="node1" class="node">
<title>Node1</title>
<g id="a_node1"><a xlink:title=" ">
<polygon fill="#bfbfbf" stroke="black" points="161.5,-112.5 161.5,-131.5 253.5,-131.5 253.5,-112.5 161.5,-112.5"/>
<text text-anchor="middle" x="207.5" y="-119.5" font-family="Helvetica,sans-Serif" font-size="10.00">src/DiffMatrix.h</text>
</a>
</g>
</g>
<!-- Node2 -->
<g id="node2" class="node">
<title>Node2</title>
<g id="a_node2"><a xlink:href="DiffMatrix_8cpp.html" target="_top" xlink:title=" ">
<polygon fill="white" stroke="black" points="0,-56.5 0,-75.5 103,-75.5 103,-56.5 0,-56.5"/>
<text text-anchor="middle" x="51.5" y="-63.5" font-family="Helvetica,sans-Serif" font-size="10.00">src/DiffMatrix.cpp</text>
</a>
</g>
</g>
<!-- Node1&#45;&gt;Node2 -->
<g id="edge1" class="edge">
<title>Node1&#45;&gt;Node2</title>
<path fill="none" stroke="midnightblue" d="M173.33,-109.17C143.96,-99 102.3,-84.59 76.1,-75.52"/>
<polygon fill="midnightblue" stroke="midnightblue" points="172.19,-112.48 182.78,-112.44 174.48,-105.86 172.19,-112.48"/>
</g>
<!-- Node3 -->
<g id="node3" class="node">
<title>Node3</title>
<g id="a_node3"><a xlink:href="MultMatrix_8h.html" target="_top" xlink:title=" ">
<polygon fill="white" stroke="black" points="121.5,-56.5 121.5,-75.5 217.5,-75.5 217.5,-56.5 121.5,-56.5"/>
<text text-anchor="middle" x="169.5" y="-63.5" font-family="Helvetica,sans-Serif" font-size="10.00">src/MultMatrix.h</text>
</a>
</g>
</g>
<!-- Node1&#45;&gt;Node3 -->
<g id="edge2" class="edge">
<title>Node1&#45;&gt;Node3</title>
<path fill="none" stroke="midnightblue" d="M195.44,-103.86C188.86,-94.5 180.99,-83.33 175.66,-75.75"/>
<polygon fill="midnightblue" stroke="midnightblue" points="192.61,-105.92 201.23,-112.08 198.33,-101.89 192.61,-105.92"/>
</g>
<!-- Node5 -->
<g id="node5" class="node">
<title>Node5</title>
<g id="a_node5"><a xlink:href="main_8cpp.html" target="_top" xlink:title=" ">
<polygon fill="white" stroke="black" points="206,-0.5 206,-19.5 285,-19.5 285,-0.5 206,-0.5"/>
<text text-anchor="middle" x="245.5" y="-7.5" font-family="Helvetica,sans-Serif" font-size="10.00">src/main.cpp</text>
</a>
</g>
</g>
<!-- Node1&#45;&gt;Node5 -->
<g id="edge8" class="edge">
<title>Node1&#45;&gt;Node5</title>
<path fill="none" stroke="midnightblue" d="M215.57,-103.21C219.14,-95.01 223.26,-85.1 226.5,-76 233.6,-56.06 240.11,-32.03 243.35,-19.51"/>
<polygon fill="midnightblue" stroke="midnightblue" points="212.31,-101.93 211.44,-112.49 218.7,-104.78 212.31,-101.93"/>
</g>
<!-- Node6 -->
<g id="node6" class="node">
<title>Node6</title>
<g id="a_node6"><a xlink:href="SumMatrix_8h.html" target="_top" xlink:title=" ">
<polygon fill="white" stroke="black" points="273.5,-56.5 273.5,-75.5 369.5,-75.5 369.5,-56.5 273.5,-56.5"/>
<text text-anchor="middle" x="321.5" y="-63.5" font-family="Helvetica,sans-Serif" font-size="10.00">src/SumMatrix.h</text>
</a>
</g>
</g>
<!-- Node1&#45;&gt;Node6 -->
<g id="edge5" class="edge">
<title>Node1&#45;&gt;Node6</title>
<path fill="none" stroke="midnightblue" d="M234.74,-108.1C256.04,-98.01 285.04,-84.27 303.52,-75.52"/>
<polygon fill="midnightblue" stroke="midnightblue" points="233.1,-105 225.56,-112.44 236.1,-111.33 233.1,-105"/>
</g>
<!-- Node4 -->
<g id="node4" class="node">
<title>Node4</title>
<g id="a_node4"><a xlink:href="MultMatrix_8cpp.html" target="_top" xlink:title=" ">
<polygon fill="white" stroke="black" points="81,-0.5 81,-19.5 188,-19.5 188,-0.5 81,-0.5"/>
<text text-anchor="middle" x="134.5" y="-7.5" font-family="Helvetica,sans-Serif" font-size="10.00">src/MultMatrix.cpp</text>
</a>
</g>
</g>
<!-- Node3&#45;&gt;Node4 -->
<g id="edge3" class="edge">
<title>Node3&#45;&gt;Node4</title>
<path fill="none" stroke="midnightblue" d="M158.2,-47.57C152.18,-38.27 145.03,-27.25 140.17,-19.75"/>
<polygon fill="midnightblue" stroke="midnightblue" points="155.34,-49.6 163.72,-56.08 161.22,-45.79 155.34,-49.6"/>
</g>
<!-- Node3&#45;&gt;Node5 -->
<g id="edge4" class="edge">
<title>Node3&#45;&gt;Node5</title>
<path fill="none" stroke="midnightblue" d="M190.08,-50.38C203.81,-40.62 221.43,-28.11 233.07,-19.83"/>
<polygon fill="midnightblue" stroke="midnightblue" points="187.84,-47.68 181.71,-56.32 191.89,-53.38 187.84,-47.68"/>
</g>
<!-- Node6&#45;&gt;Node5 -->
<g id="edge7" class="edge">
<title>Node6&#45;&gt;Node5</title>
<path fill="none" stroke="midnightblue" d="M300.92,-50.38C287.19,-40.62 269.57,-28.11 257.93,-19.83"/>
<polygon fill="midnightblue" stroke="midnightblue" points="299.11,-53.38 309.29,-56.32 303.16,-47.68 299.11,-53.38"/>
</g>
<!-- Node7 -->
<g id="node7" class="node">
<title>Node7</title>
<g id="a_node7"><a xlink:href="SumMatrix_8cpp.html" target="_top" xlink:title=" ">
<polygon fill="white" stroke="black" points="303,-0.5 303,-19.5 410,-19.5 410,-0.5 303,-0.5"/>
<text text-anchor="middle" x="356.5" y="-7.5" font-family="Helvetica,sans-Serif" font-size="10.00">src/SumMatrix.cpp</text>
</a>
</g>
</g>
<!-- Node6&#45;&gt;Node7 -->
<g id="edge6" class="edge">
<title>Node6&#45;&gt;Node7</title>
<path fill="none" stroke="midnightblue" d="M332.8,-47.57C338.82,-38.27 345.97,-27.25 350.83,-19.75"/>
<polygon fill="midnightblue" stroke="midnightblue" points="329.78,-45.79 327.28,-56.08 335.66,-49.6 329.78,-45.79"/>
</g>
</g>
</svg>
