<?xml version="1.0" encoding="UTF-8" standalone="no"?>
<!DOCTYPE svg PUBLIC "-//W3C//DTD SVG 1.1//EN"
 "http://www.w3.org/Graphics/SVG/1.1/DTD/svg11.dtd">
<!-- Generated by graphviz version 3.0.0 (0)
 -->
<!-- Title: src/DiffMatrix.cpp Pages: 1 -->
<svg width="144pt" height="196pt"
 viewBox="0.00 0.00 144.00 196.00" xmlns="http://www.w3.org/2000/svg" xmlns:xlink="http://www.w3.org/1999/xlink">
<g id="graph0" class="graph" transform="scale(1 1) rotate(0) translate(4 192)">
<title>src/DiffMatrix.cpp</title>
<polygon fill="white" stroke="transparent" points="-4,4 -4,-192 140,-192 140,4 -4,4"/>
<!-- Node1 -->
<g id="node1" class="node">
<title>Node1</title>
<g id="a_node1"><a xlink:title=" ">
<polygon fill="#bfbfbf" stroke="black" points="17.5,-168.5 17.5,-187.5 120.5,-187.5 120.5,-168.5 17.5,-168.5"/>
<text text-anchor="middle" x="69" y="-175.5" font-family="Helvetica,sans-Serif" font-size="10.00">src/DiffMatrix.cpp</text>
</a>
</g>
</g>
<!-- Node2 -->
<g id="node2" class="node">
<title>Node2</title>
<g id="a_node2"><a xlink:href="DiffMatrix_8h.html" target="_top" xlink:title=" ">
<polygon fill="white" stroke="black" points="0,-112.5 0,-131.5 74,-131.5 74,-112.5 0,-112.5"/>
<text text-anchor="middle" x="37" y="-119.5" font-family="Helvetica,sans-Serif" font-size="10.00">DiffMatrix.h</text>
</a>
</g>
</g>
<!-- Node1&#45;&gt;Node2 -->
<g id="edge1" class="edge">
<title>Node1&#45;&gt;Node2</title>
<path fill="none" stroke="midnightblue" d="M63.72,-168.08C59.29,-160.61 52.84,-149.72 47.38,-140.52"/>
<polygon fill="midnightblue" stroke="midnightblue" points="50.29,-138.57 42.19,-131.75 44.27,-142.14 50.29,-138.57"/>
</g>
<!-- Node3 -->
<g id="node3" class="node">
<title>Node3</title>
<g id="a_node3"><a xlink:href="matrix_8h.html" target="_top" xlink:title=" ">
<polygon fill="white" stroke="black" points="40,-56.5 40,-75.5 98,-75.5 98,-56.5 40,-56.5"/>
<text text-anchor="middle" x="69" y="-63.5" font-family="Helvetica,sans-Serif" font-size="10.00">matrix.h</text>
</a>
</g>
</g>
<!-- Node1&#45;&gt;Node3 -->
<g id="edge5" class="edge">
<title>Node1&#45;&gt;Node3</title>
<path fill="none" stroke="midnightblue" d="M72.97,-168.23C78.11,-155.8 86.09,-132.31 83,-112 81.63,-103 78.81,-93.33 76.05,-85.26"/>
<polygon fill="midnightblue" stroke="midnightblue" points="79.31,-83.98 72.6,-75.78 72.73,-86.37 79.31,-83.98"/>
</g>
<!-- Node2&#45;&gt;Node3 -->
<g id="edge2" class="edge">
<title>Node2&#45;&gt;Node3</title>
<path fill="none" stroke="midnightblue" d="M42.28,-112.08C46.71,-104.61 53.16,-93.72 58.62,-84.52"/>
<polygon fill="midnightblue" stroke="midnightblue" points="61.73,-86.14 63.81,-75.75 55.71,-82.57 61.73,-86.14"/>
</g>
<!-- Node4 -->
<g id="node4" class="node">
<title>Node4</title>
<g id="a_node4"><a xlink:title=" ">
<polygon fill="white" stroke="#bfbfbf" points="6.5,-0.5 6.5,-19.5 57.5,-19.5 57.5,-0.5 6.5,-0.5"/>
<text text-anchor="middle" x="32" y="-7.5" font-family="Helvetica,sans-Serif" font-size="10.00">math.h</text>
</a>
</g>
</g>
<!-- Node3&#45;&gt;Node4 -->
<g id="edge3" class="edge">
<title>Node3&#45;&gt;Node4</title>
<path fill="none" stroke="midnightblue" d="M62.89,-56.08C57.72,-48.53 50.15,-37.49 43.81,-28.23"/>
<polygon fill="midnightblue" stroke="midnightblue" points="46.54,-26.02 38,-19.75 40.76,-29.98 46.54,-26.02"/>
</g>
<!-- Node5 -->
<g id="node5" class="node">
<title>Node5</title>
<g id="a_node5"><a xlink:title=" ">
<polygon fill="white" stroke="#bfbfbf" points="76,-0.5 76,-19.5 136,-19.5 136,-0.5 76,-0.5"/>
<text text-anchor="middle" x="106" y="-7.5" font-family="Helvetica,sans-Serif" font-size="10.00">iostream</text>
</a>
</g>
</g>
<!-- Node3&#45;&gt;Node5 -->
<g id="edge4" class="edge">
<title>Node3&#45;&gt;Node5</title>
<path fill="none" stroke="midnightblue" d="M75.11,-56.08C80.28,-48.53 87.85,-37.49 94.19,-28.23"/>
<polygon fill="midnightblue" stroke="midnightblue" points="97.24,-29.98 100,-19.75 91.46,-26.02 97.24,-29.98"/>
</g>
</g>
</svg>
