<?xml version="1.0" encoding="UTF-8" standalone="no"?>
<!DOCTYPE svg PUBLIC "-//W3C//DTD SVG 1.1//EN"
 "http://www.w3.org/Graphics/SVG/1.1/DTD/svg11.dtd">
<!-- Generated by graphviz version 3.0.0 (0)
 -->
<!-- Title: main Pages: 1 -->
<svg width="560pt" height="275pt"
 viewBox="0.00 0.00 560.00 275.00" xmlns="http://www.w3.org/2000/svg" xmlns:xlink="http://www.w3.org/1999/xlink">
<g id="graph0" class="graph" transform="scale(1 1) rotate(0) translate(4 271)">
<title>main</title>
<polygon fill="white" stroke="transparent" points="-4,4 -4,-271 556,-271 556,4 -4,4"/>
<!-- Node1 -->
<g id="node1" class="node">
<title>Node1</title>
<g id="a_node1"><a xlink:title=" ">
<polygon fill="#bfbfbf" stroke="black" points="0,-114.5 0,-133.5 41,-133.5 41,-114.5 0,-114.5"/>
<text text-anchor="middle" x="20.5" y="-121.5" font-family="Helvetica,sans-Serif" font-size="10.00">main</text>
</a>
</g>
</g>
<!-- Node2 -->
<g id="node2" class="node">
<title>Node2</title>
<g id="a_node2"><a xlink:href="classCMatrix.html#a29e1f4a97fd559d63acf4c6396fbf336" target="_top" xlink:title=" ">
<polygon fill="white" stroke="black" points="291,-209.5 291,-228.5 383,-228.5 383,-209.5 291,-209.5"/>
<text text-anchor="middle" x="337" y="-216.5" font-family="Helvetica,sans-Serif" font-size="10.00">CMatrix::Merge</text>
</a>
</g>
</g>
<!-- Node1&#45;&gt;Node2 -->
<g id="edge1" class="edge">
<title>Node1&#45;&gt;Node2</title>
<path fill="none" stroke="midnightblue" d="M41.03,-128.01C77.81,-135.89 159.56,-154.91 225,-181 241.81,-187.7 244.11,-193.51 261,-200 267.4,-202.46 274.23,-204.69 281.07,-206.7"/>
<polygon fill="midnightblue" stroke="midnightblue" points="280.47,-210.16 291.04,-209.46 282.34,-203.42 280.47,-210.16"/>
</g>
<!-- Node7 -->
<g id="node7" class="node">
<title>Node7</title>
<g id="a_node7"><a xlink:href="classDiffMatrix.html#a8562e991029a1606b369bc2876446b86" target="_top" xlink:title=" ">
<polygon fill="white" stroke="black" points="91.5,-76.5 91.5,-95.5 210.5,-95.5 210.5,-76.5 91.5,-76.5"/>
<text text-anchor="middle" x="151" y="-83.5" font-family="Helvetica,sans-Serif" font-size="10.00">DiffMatrix::Operation</text>
</a>
</g>
</g>
<!-- Node1&#45;&gt;Node7 -->
<g id="edge6" class="edge">
<title>Node1&#45;&gt;Node7</title>
<path fill="none" stroke="midnightblue" d="M41.02,-118.23C58.75,-112.98 85.52,-105.07 108.08,-98.4"/>
<polygon fill="midnightblue" stroke="midnightblue" points="109.19,-101.72 117.78,-95.53 107.2,-95.01 109.19,-101.72"/>
</g>
<!-- Node8 -->
<g id="node8" class="node">
<title>Node8</title>
<g id="a_node8"><a xlink:href="classMultMatrix.html#a1701c9228926f51ef0e4569625d49c02" target="_top" xlink:title=" ">
<polygon fill="white" stroke="black" points="89,-38.5 89,-57.5 213,-57.5 213,-38.5 89,-38.5"/>
<text text-anchor="middle" x="151" y="-45.5" font-family="Helvetica,sans-Serif" font-size="10.00">MultMatrix::Operation</text>
</a>
</g>
</g>
<!-- Node1&#45;&gt;Node8 -->
<g id="edge7" class="edge">
<title>Node1&#45;&gt;Node8</title>
<path fill="none" stroke="midnightblue" d="M28.22,-114.36C37.63,-101.58 55.99,-79.22 77,-67 80.86,-64.75 84.99,-62.77 89.25,-61.02"/>
<polygon fill="midnightblue" stroke="midnightblue" points="90.53,-64.27 98.71,-57.54 88.12,-57.7 90.53,-64.27"/>
</g>
<!-- Node9 -->
<g id="node9" class="node">
<title>Node9</title>
<g id="a_node9"><a xlink:href="classSumMatrix.html#a0c442f07b01187ebdd4fd5a8f8bce9f0" target="_top" xlink:title=" ">
<polygon fill="white" stroke="black" points="89,-0.5 89,-19.5 213,-19.5 213,-0.5 89,-0.5"/>
<text text-anchor="middle" x="151" y="-7.5" font-family="Helvetica,sans-Serif" font-size="10.00">SumMatrix::Operation</text>
</a>
</g>
</g>
<!-- Node1&#45;&gt;Node9 -->
<g id="edge8" class="edge">
<title>Node1&#45;&gt;Node9</title>
<path fill="none" stroke="midnightblue" d="M24.39,-114.22C30.65,-94.84 47.31,-51.49 77,-29 79.48,-27.12 82.12,-25.43 84.88,-23.91"/>
<polygon fill="midnightblue" stroke="midnightblue" points="86.49,-27.02 94.03,-19.58 83.5,-20.69 86.49,-27.02"/>
</g>
<!-- Node10 -->
<g id="node10" class="node">
<title>Node10</title>
<g id="a_node10"><a xlink:href="classCGem.html#a761f9fbce8991678298143a3472dee61" target="_top" xlink:title=" ">
<polygon fill="white" stroke="black" points="103.5,-228.5 103.5,-247.5 198.5,-247.5 198.5,-228.5 103.5,-228.5"/>
<text text-anchor="middle" x="151" y="-235.5" font-family="Helvetica,sans-Serif" font-size="10.00">CGem::RunGem</text>
</a>
</g>
</g>
<!-- Node1&#45;&gt;Node10 -->
<g id="edge9" class="edge">
<title>Node1&#45;&gt;Node10</title>
<path fill="none" stroke="midnightblue" d="M24.39,-133.78C30.65,-153.16 47.31,-196.51 77,-219 82.07,-222.84 87.84,-225.91 93.87,-228.36"/>
<polygon fill="midnightblue" stroke="midnightblue" points="92.89,-231.72 103.49,-231.72 95.2,-225.11 92.89,-231.72"/>
</g>
<!-- Node13 -->
<g id="node13" class="node">
<title>Node13</title>
<g id="a_node13"><a xlink:href="classCGemKomentare.html#a249425fa1a32afb535ad72f2f2419724" target="_top" xlink:title=" ">
<polygon fill="white" stroke="black" points="77,-190.5 77,-209.5 225,-209.5 225,-190.5 77,-190.5"/>
<text text-anchor="middle" x="151" y="-197.5" font-family="Helvetica,sans-Serif" font-size="10.00">CGemKomentare::RunGem</text>
</a>
</g>
</g>
<!-- Node1&#45;&gt;Node13 -->
<g id="edge15" class="edge">
<title>Node1&#45;&gt;Node13</title>
<path fill="none" stroke="midnightblue" d="M29.55,-133.79C39.55,-145.38 57.69,-164.55 77,-176 84.34,-180.35 92.57,-184.03 100.79,-187.09"/>
<polygon fill="midnightblue" stroke="midnightblue" points="99.78,-190.45 110.37,-190.42 102.07,-183.83 99.78,-190.45"/>
</g>
<!-- Node15 -->
<g id="node15" class="node">
<title>Node15</title>
<g id="a_node15"><a xlink:href="classCMatrix.html#aa618f0de91aaf18c0ceb23606b018e50" target="_top" xlink:title=" ">
<polygon fill="white" stroke="black" points="295.5,-95.5 295.5,-114.5 378.5,-114.5 378.5,-95.5 295.5,-95.5"/>
<text text-anchor="middle" x="337" y="-102.5" font-family="Helvetica,sans-Serif" font-size="10.00">CMatrix::Split</text>
</a>
</g>
</g>
<!-- Node1&#45;&gt;Node15 -->
<g id="edge19" class="edge">
<title>Node1&#45;&gt;Node15</title>
<path fill="none" stroke="midnightblue" d="M41.17,-122.81C89.37,-119.9 214.54,-112.34 285.32,-108.06"/>
<polygon fill="midnightblue" stroke="midnightblue" points="285.58,-111.55 295.35,-107.46 285.15,-104.57 285.58,-111.55"/>
</g>
<!-- Node3 -->
<g id="node3" class="node">
<title>Node3</title>
<g id="a_node3"><a xlink:href="classCMatrix.html#af7ad82a26f27d7f9aeafc099ae13bcbc" target="_top" xlink:title=" ">
<polygon fill="white" stroke="black" points="460.5,-247.5 460.5,-266.5 540.5,-266.5 540.5,-247.5 460.5,-247.5"/>
<text text-anchor="middle" x="500.5" y="-254.5" font-family="Helvetica,sans-Serif" font-size="10.00">CMatrix::cols</text>
</a>
</g>
</g>
<!-- Node2&#45;&gt;Node3 -->
<g id="edge2" class="edge">
<title>Node2&#45;&gt;Node3</title>
<path fill="none" stroke="midnightblue" d="M378.75,-228.59C400.57,-233.72 427.59,-240.08 450.54,-245.48"/>
<polygon fill="midnightblue" stroke="midnightblue" points="449.9,-248.92 460.43,-247.81 451.5,-242.11 449.9,-248.92"/>
</g>
<!-- Node4 -->
<g id="node4" class="node">
<title>Node4</title>
<g id="a_node4"><a xlink:href="classCMatrix.html#ab5ac6d4c06b0f182f64d628ec899c4f5" target="_top" xlink:title=" ">
<polygon fill="white" stroke="black" points="459,-133.5 459,-152.5 542,-152.5 542,-133.5 459,-133.5"/>
<text text-anchor="middle" x="500.5" y="-140.5" font-family="Helvetica,sans-Serif" font-size="10.00">CMatrix::data</text>
</a>
</g>
</g>
<!-- Node2&#45;&gt;Node4 -->
<g id="edge3" class="edge">
<title>Node2&#45;&gt;Node4</title>
<path fill="none" stroke="midnightblue" d="M383.25,-211.9C393.47,-209.13 403.96,-205.3 413,-200 433.07,-188.23 429.62,-174.87 449,-162 451.9,-160.08 455.02,-158.31 458.23,-156.7"/>
<polygon fill="midnightblue" stroke="midnightblue" points="459.76,-159.85 467.44,-152.55 456.89,-153.46 459.76,-159.85"/>
</g>
<!-- Node5 -->
<g id="node5" class="node">
<title>Node5</title>
<g id="a_node5"><a xlink:href="classCMatrix.html#ad6d9d5756b2d75a733715a987e5ea944" target="_top" xlink:title=" ">
<polygon fill="white" stroke="black" points="449,-171.5 449,-190.5 552,-190.5 552,-171.5 449,-171.5"/>
<text text-anchor="middle" x="500.5" y="-178.5" font-family="Helvetica,sans-Serif" font-size="10.00">CMatrix::IsSquare</text>
</a>
</g>
</g>
<!-- Node2&#45;&gt;Node5 -->
<g id="edge4" class="edge">
<title>Node2&#45;&gt;Node5</title>
<path fill="none" stroke="midnightblue" d="M378.75,-209.41C400.16,-204.37 426.59,-198.16 449.25,-192.82"/>
<polygon fill="midnightblue" stroke="midnightblue" points="450.11,-196.22 459.04,-190.52 448.5,-189.4 450.11,-196.22"/>
</g>
<!-- Node6 -->
<g id="node6" class="node">
<title>Node6</title>
<g id="a_node6"><a xlink:href="classCMatrix.html#a119114ca80cc672072f278ef110a1605" target="_top" xlink:title=" ">
<polygon fill="white" stroke="black" points="458.5,-209.5 458.5,-228.5 542.5,-228.5 542.5,-209.5 458.5,-209.5"/>
<text text-anchor="middle" x="500.5" y="-216.5" font-family="Helvetica,sans-Serif" font-size="10.00">CMatrix::rows</text>
</a>
</g>
</g>
<!-- Node2&#45;&gt;Node6 -->
<g id="edge5" class="edge">
<title>Node2&#45;&gt;Node6</title>
<path fill="none" stroke="midnightblue" d="M383.42,-219C403.53,-219 427.28,-219 448.05,-219"/>
<polygon fill="midnightblue" stroke="midnightblue" points="448.29,-222.5 458.29,-219 448.29,-215.5 448.29,-222.5"/>
</g>
<!-- Node11 -->
<g id="node11" class="node">
<title>Node11</title>
<g id="a_node11"><a xlink:href="classCGem.html#ab4338e6e655c2d725ae24bbe6bad706a" target="_top" xlink:title=" ">
<polygon fill="white" stroke="black" points="276.5,-247.5 276.5,-266.5 397.5,-266.5 397.5,-247.5 276.5,-247.5"/>
<text text-anchor="middle" x="337" y="-254.5" font-family="Helvetica,sans-Serif" font-size="10.00">CGem::CheckForGem</text>
</a>
</g>
</g>
<!-- Node10&#45;&gt;Node11 -->
<g id="edge10" class="edge">
<title>Node10&#45;&gt;Node11</title>
<path fill="none" stroke="midnightblue" d="M198.91,-242.84C219.31,-244.95 243.65,-247.46 266.12,-249.78"/>
<polygon fill="midnightblue" stroke="midnightblue" points="265.98,-253.29 276.29,-250.83 266.7,-246.33 265.98,-253.29"/>
</g>
<!-- Node12 -->
<g id="node12" class="node">
<title>Node12</title>
<g id="a_node12"><a xlink:href="classCMatrix.html#aa92a003472da7e4a0533c1bef86f77ef" target="_top" xlink:title=" ">
<polygon fill="white" stroke="black" points="295.5,-171.5 295.5,-190.5 378.5,-190.5 378.5,-171.5 295.5,-171.5"/>
<text text-anchor="middle" x="337" y="-178.5" font-family="Helvetica,sans-Serif" font-size="10.00">CMatrix::GEM</text>
</a>
</g>
</g>
<!-- Node10&#45;&gt;Node12 -->
<g id="edge13" class="edge">
<title>Node10&#45;&gt;Node12</title>
<path fill="none" stroke="midnightblue" d="M195.37,-228.47C205.25,-225.82 215.6,-222.65 225,-219 241.87,-212.46 244.11,-206.49 261,-200 268.84,-196.99 277.33,-194.31 285.67,-191.99"/>
<polygon fill="midnightblue" stroke="midnightblue" points="286.59,-195.37 295.36,-189.43 284.8,-188.6 286.59,-195.37"/>
</g>
<!-- Node11&#45;&gt;Node3 -->
<g id="edge11" class="edge">
<title>Node11&#45;&gt;Node3</title>
<path fill="none" stroke="midnightblue" d="M397.68,-257C414.94,-257 433.59,-257 450.14,-257"/>
<polygon fill="midnightblue" stroke="midnightblue" points="450.15,-260.5 460.15,-257 450.15,-253.5 450.15,-260.5"/>
</g>
<!-- Node11&#45;&gt;Node6 -->
<g id="edge12" class="edge">
<title>Node11&#45;&gt;Node6</title>
<path fill="none" stroke="midnightblue" d="M378.75,-247.41C400.16,-242.37 426.59,-236.16 449.25,-230.82"/>
<polygon fill="midnightblue" stroke="midnightblue" points="450.11,-234.22 459.04,-228.52 448.5,-227.4 450.11,-234.22"/>
</g>
<!-- Node12&#45;&gt;Node4 -->
<g id="edge14" class="edge">
<title>Node12&#45;&gt;Node4</title>
<path fill="none" stroke="midnightblue" d="M378.75,-171.41C400.16,-166.37 426.59,-160.16 449.25,-154.82"/>
<polygon fill="midnightblue" stroke="midnightblue" points="450.11,-158.22 459.04,-152.52 448.5,-151.4 450.11,-158.22"/>
</g>
<!-- Node13&#45;&gt;Node11 -->
<g id="edge16" class="edge">
<title>Node13&#45;&gt;Node11</title>
<path fill="none" stroke="midnightblue" d="M195.37,-209.53C205.25,-212.18 215.6,-215.35 225,-219 241.87,-225.54 244.11,-231.51 261,-238 267.4,-240.46 274.23,-242.69 281.07,-244.7"/>
<polygon fill="midnightblue" stroke="midnightblue" points="280.47,-248.16 291.04,-247.46 282.34,-241.42 280.47,-248.16"/>
</g>
<!-- Node14 -->
<g id="node14" class="node">
<title>Node14</title>
<g id="a_node14"><a xlink:href="classCMatrix.html#a0251e36f5f38ac6bf9dbeb4718973664" target="_top" xlink:title=" ">
<polygon fill="white" stroke="black" points="261,-133.5 261,-152.5 413,-152.5 413,-133.5 261,-133.5"/>
<text text-anchor="middle" x="337" y="-140.5" font-family="Helvetica,sans-Serif" font-size="10.00">CMatrix::GEMsKomentarem</text>
</a>
</g>
</g>
<!-- Node13&#45;&gt;Node14 -->
<g id="edge17" class="edge">
<title>Node13&#45;&gt;Node14</title>
<path fill="none" stroke="midnightblue" d="M177.34,-190.46C199.3,-182.36 232.02,-170.7 261,-162 269.04,-159.58 277.63,-157.21 286.02,-155.01"/>
<polygon fill="midnightblue" stroke="midnightblue" points="286.92,-158.4 295.73,-152.51 285.17,-151.62 286.92,-158.4"/>
</g>
<!-- Node14&#45;&gt;Node4 -->
<g id="edge18" class="edge">
<title>Node14&#45;&gt;Node4</title>
<path fill="none" stroke="midnightblue" d="M413.08,-143C425.19,-143 437.46,-143 448.82,-143"/>
<polygon fill="midnightblue" stroke="midnightblue" points="448.96,-146.5 458.96,-143 448.96,-139.5 448.96,-146.5"/>
</g>
<!-- Node15&#45;&gt;Node4 -->
<g id="edge20" class="edge">
<title>Node15&#45;&gt;Node4</title>
<path fill="none" stroke="midnightblue" d="M378.75,-114.59C400.16,-119.63 426.59,-125.84 449.25,-131.18"/>
<polygon fill="midnightblue" stroke="midnightblue" points="448.5,-134.6 459.04,-133.48 450.11,-127.78 448.5,-134.6"/>
</g>
</g>
</svg>
