<?xml version="1.0" encoding="UTF-8" standalone="no"?>
<!DOCTYPE svg PUBLIC "-//W3C//DTD SVG 1.1//EN"
 "http://www.w3.org/Graphics/SVG/1.1/DTD/svg11.dtd">
<!-- Generated by graphviz version 3.0.0 (0)
 -->
<!-- Title: src/main.cpp Pages: 1 -->
<svg width="1005pt" height="252pt"
 viewBox="0.00 0.00 1005.17 252.00" xmlns="http://www.w3.org/2000/svg" xmlns:xlink="http://www.w3.org/1999/xlink">
<g id="graph0" class="graph" transform="scale(1 1) rotate(0) translate(4 248)">
<title>src/main.cpp</title>
<polygon fill="white" stroke="transparent" points="-4,4 -4,-248 1001.17,-248 1001.17,4 -4,4"/>
<!-- Node1 -->
<g id="node1" class="node">
<title>Node1</title>
<g id="a_node1"><a xlink:title=" ">
<polygon fill="#bfbfbf" stroke="black" points="433.17,-224.5 433.17,-243.5 512.17,-243.5 512.17,-224.5 433.17,-224.5"/>
<text text-anchor="middle" x="472.67" y="-231.5" font-family="Helvetica,sans-Serif" font-size="10.00">src/main.cpp</text>
</a>
</g>
</g>
<!-- Node2 -->
<g id="node2" class="node">
<title>Node2</title>
<g id="a_node2"><a xlink:title=" ">
<polygon fill="white" stroke="#bfbfbf" points="294.67,-0.5 294.67,-19.5 354.67,-19.5 354.67,-0.5 294.67,-0.5"/>
<text text-anchor="middle" x="324.67" y="-7.5" font-family="Helvetica,sans-Serif" font-size="10.00">iostream</text>
</a>
</g>
</g>
<!-- Node1&#45;&gt;Node2 -->
<g id="edge1" class="edge">
<title>Node1&#45;&gt;Node2</title>
<path fill="none" stroke="midnightblue" d="M432.84,-232.05C327.07,-229.13 45.31,-218.52 17.67,-188 -67.5,-94 183.63,-36.61 284.62,-17.82"/>
<polygon fill="midnightblue" stroke="midnightblue" points="285.26,-21.26 294.47,-16.03 284.01,-14.38 285.26,-21.26"/>
</g>
<!-- Node3 -->
<g id="node3" class="node">
<title>Node3</title>
<g id="a_node3"><a xlink:title=" ">
<polygon fill="white" stroke="#bfbfbf" points="27.17,-168.5 27.17,-187.5 80.17,-187.5 80.17,-168.5 27.17,-168.5"/>
<text text-anchor="middle" x="53.67" y="-175.5" font-family="Helvetica,sans-Serif" font-size="10.00">stdlib.h</text>
</a>
</g>
</g>
<!-- Node1&#45;&gt;Node3 -->
<g id="edge2" class="edge">
<title>Node1&#45;&gt;Node3</title>
<path fill="none" stroke="midnightblue" d="M433,-230.02C364.95,-224.55 221.5,-211.43 90.53,-187.93"/>
<polygon fill="midnightblue" stroke="midnightblue" points="90.78,-184.41 80.32,-186.07 89.53,-191.3 90.78,-184.41"/>
</g>
<!-- Node4 -->
<g id="node4" class="node">
<title>Node4</title>
<g id="a_node4"><a xlink:title=" ">
<polygon fill="white" stroke="#bfbfbf" points="98.67,-168.5 98.67,-187.5 144.67,-187.5 144.67,-168.5 98.67,-168.5"/>
<text text-anchor="middle" x="121.67" y="-175.5" font-family="Helvetica,sans-Serif" font-size="10.00">cstdio</text>
</a>
</g>
</g>
<!-- Node1&#45;&gt;Node4 -->
<g id="edge3" class="edge">
<title>Node1&#45;&gt;Node4</title>
<path fill="none" stroke="midnightblue" d="M433.08,-229.14C374.32,-223.04 260.45,-209.77 154.86,-188.01"/>
<polygon fill="midnightblue" stroke="midnightblue" points="155.5,-184.57 144.99,-185.95 154.07,-191.42 155.5,-184.57"/>
</g>
<!-- Node5 -->
<g id="node5" class="node">
<title>Node5</title>
<g id="a_node5"><a xlink:title=" ">
<polygon fill="white" stroke="#bfbfbf" points="163.17,-168.5 163.17,-187.5 212.17,-187.5 212.17,-168.5 163.17,-168.5"/>
<text text-anchor="middle" x="187.67" y="-175.5" font-family="Helvetica,sans-Serif" font-size="10.00">cstdlib</text>
</a>
</g>
</g>
<!-- Node1&#45;&gt;Node5 -->
<g id="edge4" class="edge">
<title>Node1&#45;&gt;Node5</title>
<path fill="none" stroke="midnightblue" d="M433.16,-227.07C385.4,-219.65 302.4,-205.97 222.68,-188.31"/>
<polygon fill="midnightblue" stroke="midnightblue" points="223,-184.79 212.47,-186.02 221.46,-191.62 223,-184.79"/>
</g>
<!-- Node6 -->
<g id="node6" class="node">
<title>Node6</title>
<g id="a_node6"><a xlink:title=" ">
<polygon fill="white" stroke="#bfbfbf" points="230.17,-168.5 230.17,-187.5 277.17,-187.5 277.17,-168.5 230.17,-168.5"/>
<text text-anchor="middle" x="253.67" y="-175.5" font-family="Helvetica,sans-Serif" font-size="10.00">vector</text>
</a>
</g>
</g>
<!-- Node1&#45;&gt;Node6 -->
<g id="edge5" class="edge">
<title>Node1&#45;&gt;Node6</title>
<path fill="none" stroke="midnightblue" d="M435.88,-224.43C400.36,-216.08 344.8,-202.84 287.41,-188.14"/>
<polygon fill="midnightblue" stroke="midnightblue" points="287.99,-184.67 277.44,-185.57 286.25,-191.45 287.99,-184.67"/>
</g>
<!-- Node7 -->
<g id="node7" class="node">
<title>Node7</title>
<g id="a_node7"><a xlink:title=" ">
<polygon fill="white" stroke="#bfbfbf" points="295.67,-168.5 295.67,-187.5 351.67,-187.5 351.67,-168.5 295.67,-168.5"/>
<text text-anchor="middle" x="323.67" y="-175.5" font-family="Helvetica,sans-Serif" font-size="10.00">sstream</text>
</a>
</g>
</g>
<!-- Node1&#45;&gt;Node7 -->
<g id="edge6" class="edge">
<title>Node1&#45;&gt;Node7</title>
<path fill="none" stroke="midnightblue" d="M449.06,-224.44C424.21,-215.44 384.89,-201.19 356.91,-191.05"/>
<polygon fill="midnightblue" stroke="midnightblue" points="357.76,-187.63 347.16,-187.52 355.37,-194.21 357.76,-187.63"/>
</g>
<!-- Node8 -->
<g id="node8" class="node">
<title>Node8</title>
<g id="a_node8"><a xlink:title=" ">
<polygon fill="white" stroke="#bfbfbf" points="370.17,-168.5 370.17,-187.5 435.17,-187.5 435.17,-168.5 370.17,-168.5"/>
<text text-anchor="middle" x="402.67" y="-175.5" font-family="Helvetica,sans-Serif" font-size="10.00">stdexcept</text>
</a>
</g>
</g>
<!-- Node1&#45;&gt;Node8 -->
<g id="edge7" class="edge">
<title>Node1&#45;&gt;Node8</title>
<path fill="none" stroke="midnightblue" d="M461.42,-224.32C450.87,-216.18 434.86,-203.84 422.22,-194.09"/>
<polygon fill="midnightblue" stroke="midnightblue" points="424.17,-191.17 414.12,-187.83 419.9,-196.71 424.17,-191.17"/>
</g>
<!-- Node9 -->
<g id="node9" class="node">
<title>Node9</title>
<g id="a_node9"><a xlink:title=" ">
<polygon fill="white" stroke="#bfbfbf" points="453.67,-168.5 453.67,-187.5 491.67,-187.5 491.67,-168.5 453.67,-168.5"/>
<text text-anchor="middle" x="472.67" y="-175.5" font-family="Helvetica,sans-Serif" font-size="10.00">map</text>
</a>
</g>
</g>
<!-- Node1&#45;&gt;Node9 -->
<g id="edge8" class="edge">
<title>Node1&#45;&gt;Node9</title>
<path fill="none" stroke="midnightblue" d="M472.67,-224.08C472.67,-217.01 472.67,-206.86 472.67,-197.99"/>
<polygon fill="midnightblue" stroke="midnightblue" points="476.17,-197.75 472.67,-187.75 469.17,-197.75 476.17,-197.75"/>
</g>
<!-- Node10 -->
<g id="node10" class="node">
<title>Node10</title>
<g id="a_node10"><a xlink:title=" ">
<polygon fill="white" stroke="#bfbfbf" points="509.67,-168.5 509.67,-187.5 559.67,-187.5 559.67,-168.5 509.67,-168.5"/>
<text text-anchor="middle" x="534.67" y="-175.5" font-family="Helvetica,sans-Serif" font-size="10.00">cstring</text>
</a>
</g>
</g>
<!-- Node1&#45;&gt;Node10 -->
<g id="edge9" class="edge">
<title>Node1&#45;&gt;Node10</title>
<path fill="none" stroke="midnightblue" d="M482.63,-224.32C491.79,-216.34 505.6,-204.31 516.69,-194.65"/>
<polygon fill="midnightblue" stroke="midnightblue" points="519.28,-197.04 524.52,-187.83 514.68,-191.76 519.28,-197.04"/>
</g>
<!-- Node11 -->
<g id="node11" class="node">
<title>Node11</title>
<g id="a_node11"><a xlink:href="matrix_8h.html" target="_top" xlink:title=" ">
<polygon fill="white" stroke="black" points="694.67,-56.5 694.67,-75.5 752.67,-75.5 752.67,-56.5 694.67,-56.5"/>
<text text-anchor="middle" x="723.67" y="-63.5" font-family="Helvetica,sans-Serif" font-size="10.00">matrix.h</text>
</a>
</g>
</g>
<!-- Node1&#45;&gt;Node11 -->
<g id="edge10" class="edge">
<title>Node1&#45;&gt;Node11</title>
<path fill="none" stroke="midnightblue" d="M494.76,-224.36C514.72,-216.17 544.56,-202.91 568.67,-188 614.94,-159.37 621.7,-145.39 664.67,-112 677.8,-101.8 692.69,-90.44 704.22,-81.69"/>
<polygon fill="midnightblue" stroke="midnightblue" points="706.45,-84.39 712.31,-75.57 702.22,-78.81 706.45,-84.39"/>
</g>
<!-- Node13 -->
<g id="node13" class="node">
<title>Node13</title>
<g id="a_node13"><a xlink:href="DiffMatrix_8h.html" target="_top" xlink:title=" ">
<polygon fill="white" stroke="black" points="686.67,-112.5 686.67,-131.5 760.67,-131.5 760.67,-112.5 686.67,-112.5"/>
<text text-anchor="middle" x="723.67" y="-119.5" font-family="Helvetica,sans-Serif" font-size="10.00">DiffMatrix.h</text>
</a>
</g>
</g>
<!-- Node1&#45;&gt;Node13 -->
<g id="edge13" class="edge">
<title>Node1&#45;&gt;Node13</title>
<path fill="none" stroke="midnightblue" d="M512.48,-230.13C570.93,-225.12 676.02,-212.86 703.67,-188 716.68,-176.3 721.33,-156.36 722.94,-141.64"/>
<polygon fill="midnightblue" stroke="midnightblue" points="726.43,-141.86 723.66,-131.63 719.45,-141.35 726.43,-141.86"/>
</g>
<!-- Node14 -->
<g id="node14" class="node">
<title>Node14</title>
<g id="a_node14"><a xlink:href="SumMatrix_8h.html" target="_top" xlink:title=" ">
<polygon fill="white" stroke="black" points="616.17,-168.5 616.17,-187.5 695.17,-187.5 695.17,-168.5 616.17,-168.5"/>
<text text-anchor="middle" x="655.67" y="-175.5" font-family="Helvetica,sans-Serif" font-size="10.00">SumMatrix.h</text>
</a>
</g>
</g>
<!-- Node1&#45;&gt;Node14 -->
<g id="edge15" class="edge">
<title>Node1&#45;&gt;Node14</title>
<path fill="none" stroke="midnightblue" d="M501.66,-224.44C532.85,-215.24 582.6,-200.56 617.07,-190.39"/>
<polygon fill="midnightblue" stroke="midnightblue" points="618.2,-193.7 626.8,-187.52 616.22,-186.99 618.2,-193.7"/>
</g>
<!-- Node15 -->
<g id="node15" class="node">
<title>Node15</title>
<g id="a_node15"><a xlink:href="MultMatrix_8h.html" target="_top" xlink:title=" ">
<polygon fill="white" stroke="black" points="752.17,-168.5 752.17,-187.5 831.17,-187.5 831.17,-168.5 752.17,-168.5"/>
<text text-anchor="middle" x="791.67" y="-175.5" font-family="Helvetica,sans-Serif" font-size="10.00">MultMatrix.h</text>
</a>
</g>
</g>
<!-- Node1&#45;&gt;Node15 -->
<g id="edge18" class="edge">
<title>Node1&#45;&gt;Node15</title>
<path fill="none" stroke="midnightblue" d="M512.42,-226.27C570.56,-216.43 678.73,-198.12 742.02,-187.4"/>
<polygon fill="midnightblue" stroke="midnightblue" points="742.88,-190.81 752.16,-185.69 741.72,-183.91 742.88,-190.81"/>
</g>
<!-- Node16 -->
<g id="node16" class="node">
<title>Node16</title>
<g id="a_node16"><a xlink:href="CGem_8h.html" target="_top" xlink:title=" ">
<polygon fill="white" stroke="black" points="831.67,-112.5 831.67,-131.5 887.67,-131.5 887.67,-112.5 831.67,-112.5"/>
<text text-anchor="middle" x="859.67" y="-119.5" font-family="Helvetica,sans-Serif" font-size="10.00">CGem.h</text>
</a>
</g>
</g>
<!-- Node1&#45;&gt;Node16 -->
<g id="edge21" class="edge">
<title>Node1&#45;&gt;Node16</title>
<path fill="none" stroke="midnightblue" d="M512.18,-233.4C596.58,-233.44 790.76,-228.96 839.67,-188 853.08,-176.76 857.67,-156.75 859.15,-141.89"/>
<polygon fill="midnightblue" stroke="midnightblue" points="862.65,-141.96 859.77,-131.76 855.67,-141.53 862.65,-141.96"/>
</g>
<!-- Node17 -->
<g id="node17" class="node">
<title>Node17</title>
<g id="a_node17"><a xlink:href="CGemKomentare_8h.html" target="_top" xlink:title=" ">
<polygon fill="white" stroke="black" points="888.17,-168.5 888.17,-187.5 997.17,-187.5 997.17,-168.5 888.17,-168.5"/>
<text text-anchor="middle" x="942.67" y="-175.5" font-family="Helvetica,sans-Serif" font-size="10.00">CGemKomentare.h</text>
</a>
</g>
</g>
<!-- Node1&#45;&gt;Node17 -->
<g id="edge23" class="edge">
<title>Node1&#45;&gt;Node17</title>
<path fill="none" stroke="midnightblue" d="M512.25,-228.8C584.23,-221.1 741.36,-204.05 873.67,-188 875.13,-187.82 876.61,-187.64 878.1,-187.46"/>
<polygon fill="midnightblue" stroke="midnightblue" points="878.57,-190.93 888.06,-186.21 877.71,-183.98 878.57,-190.93"/>
</g>
<!-- Node11&#45;&gt;Node2 -->
<g id="edge12" class="edge">
<title>Node11&#45;&gt;Node2</title>
<path fill="none" stroke="midnightblue" d="M694.65,-61.07C624.54,-51.58 445.78,-27.39 365.17,-16.48"/>
<polygon fill="midnightblue" stroke="midnightblue" points="365.31,-12.97 354.93,-15.1 364.37,-19.91 365.31,-12.97"/>
</g>
<!-- Node12 -->
<g id="node12" class="node">
<title>Node12</title>
<g id="a_node12"><a xlink:title=" ">
<polygon fill="white" stroke="#bfbfbf" points="698.17,-0.5 698.17,-19.5 749.17,-19.5 749.17,-0.5 698.17,-0.5"/>
<text text-anchor="middle" x="723.67" y="-7.5" font-family="Helvetica,sans-Serif" font-size="10.00">math.h</text>
</a>
</g>
</g>
<!-- Node11&#45;&gt;Node12 -->
<g id="edge11" class="edge">
<title>Node11&#45;&gt;Node12</title>
<path fill="none" stroke="midnightblue" d="M723.67,-56.08C723.67,-49.01 723.67,-38.86 723.67,-29.99"/>
<polygon fill="midnightblue" stroke="midnightblue" points="727.17,-29.75 723.67,-19.75 720.17,-29.75 727.17,-29.75"/>
</g>
<!-- Node13&#45;&gt;Node11 -->
<g id="edge14" class="edge">
<title>Node13&#45;&gt;Node11</title>
<path fill="none" stroke="midnightblue" d="M723.67,-112.08C723.67,-105.01 723.67,-94.86 723.67,-85.99"/>
<polygon fill="midnightblue" stroke="midnightblue" points="727.17,-85.75 723.67,-75.75 720.17,-85.75 727.17,-85.75"/>
</g>
<!-- Node14&#45;&gt;Node11 -->
<g id="edge16" class="edge">
<title>Node14&#45;&gt;Node11</title>
<path fill="none" stroke="midnightblue" d="M657.22,-168.45C659.87,-155.46 666.12,-130.35 677.67,-112 684.68,-100.85 694.99,-90.42 704.07,-82.42"/>
<polygon fill="midnightblue" stroke="midnightblue" points="706.54,-84.92 711.94,-75.8 702.03,-79.56 706.54,-84.92"/>
</g>
<!-- Node14&#45;&gt;Node13 -->
<g id="edge17" class="edge">
<title>Node14&#45;&gt;Node13</title>
<path fill="none" stroke="midnightblue" d="M666.59,-168.32C676.84,-160.18 692.39,-147.84 704.67,-138.09"/>
<polygon fill="midnightblue" stroke="midnightblue" points="706.89,-140.79 712.54,-131.83 702.53,-135.31 706.89,-140.79"/>
</g>
<!-- Node15&#45;&gt;Node11 -->
<g id="edge19" class="edge">
<title>Node15&#45;&gt;Node11</title>
<path fill="none" stroke="midnightblue" d="M790.11,-168.45C787.46,-155.46 781.21,-130.35 769.67,-112 762.65,-100.85 752.34,-90.42 743.26,-82.42"/>
<polygon fill="midnightblue" stroke="midnightblue" points="745.3,-79.56 735.39,-75.8 740.79,-84.92 745.3,-79.56"/>
</g>
<!-- Node15&#45;&gt;Node13 -->
<g id="edge20" class="edge">
<title>Node15&#45;&gt;Node13</title>
<path fill="none" stroke="midnightblue" d="M780.74,-168.32C770.49,-160.18 754.94,-147.84 742.66,-138.09"/>
<polygon fill="midnightblue" stroke="midnightblue" points="744.8,-135.31 734.79,-131.83 740.44,-140.79 744.8,-135.31"/>
</g>
<!-- Node16&#45;&gt;Node11 -->
<g id="edge22" class="edge">
<title>Node16&#45;&gt;Node11</title>
<path fill="none" stroke="midnightblue" d="M838.12,-112.44C815.63,-103.52 780.18,-89.44 754.69,-79.32"/>
<polygon fill="midnightblue" stroke="midnightblue" points="755.7,-75.95 745.11,-75.52 753.12,-82.46 755.7,-75.95"/>
</g>
<!-- Node17&#45;&gt;Node11 -->
<g id="edge24" class="edge">
<title>Node17&#45;&gt;Node11</title>
<path fill="none" stroke="midnightblue" d="M938.97,-168.36C932.52,-154.31 917.82,-126.62 896.67,-112 856.41,-84.18 800.11,-73.56 762.81,-69.5"/>
<polygon fill="midnightblue" stroke="midnightblue" points="763.11,-66.02 752.82,-68.53 762.43,-72.98 763.11,-66.02"/>
</g>
<!-- Node17&#45;&gt;Node16 -->
<g id="edge25" class="edge">
<title>Node17&#45;&gt;Node16</title>
<path fill="none" stroke="midnightblue" d="M929.33,-168.32C916.5,-159.98 896.88,-147.21 881.73,-137.35"/>
<polygon fill="midnightblue" stroke="midnightblue" points="883.26,-134.17 872.97,-131.65 879.44,-140.04 883.26,-134.17"/>
</g>
</g>
</svg>
