<?xml version="1.0" encoding="UTF-8" standalone="no"?>
<!DOCTYPE svg PUBLIC "-//W3C//DTD SVG 1.1//EN"
 "http://www.w3.org/Graphics/SVG/1.1/DTD/svg11.dtd">
<!-- Generated by graphviz version 3.0.0 (0)
 -->
<!-- Title: src/matrix.cpp Pages: 1 -->
<svg width="169pt" height="140pt"
 viewBox="0.00 0.00 168.60 140.00" xmlns="http://www.w3.org/2000/svg" xmlns:xlink="http://www.w3.org/1999/xlink">
<g id="graph0" class="graph" transform="scale(1 1) rotate(0) translate(4 136)">
<title>src/matrix.cpp</title>
<polygon fill="white" stroke="transparent" points="-4,4 -4,-136 164.6,-136 164.6,4 -4,4"/>
<!-- Node1 -->
<g id="node1" class="node">
<title>Node1</title>
<g id="a_node1"><a xlink:title=" ">
<polygon fill="#bfbfbf" stroke="black" points="28.1,-112.5 28.1,-131.5 114.1,-131.5 114.1,-112.5 28.1,-112.5"/>
<text text-anchor="middle" x="71.1" y="-119.5" font-family="Helvetica,sans-Serif" font-size="10.00">src/matrix.cpp</text>
</a>
</g>
</g>
<!-- Node2 -->
<g id="node2" class="node">
<title>Node2</title>
<g id="a_node2"><a xlink:title=" ">
<polygon fill="white" stroke="#bfbfbf" points="7.1,-0.5 7.1,-19.5 67.1,-19.5 67.1,-0.5 7.1,-0.5"/>
<text text-anchor="middle" x="37.1" y="-7.5" font-family="Helvetica,sans-Serif" font-size="10.00">iostream</text>
</a>
</g>
</g>
<!-- Node1&#45;&gt;Node2 -->
<g id="edge1" class="edge">
<title>Node1&#45;&gt;Node2</title>
<path fill="none" stroke="midnightblue" d="M47.64,-112.41C31.94,-105.28 12.48,-93.46 3.1,-76 -5.79,-59.46 6.83,-40.42 19.14,-27.24"/>
<polygon fill="midnightblue" stroke="midnightblue" points="21.94,-29.39 26.56,-19.86 17,-24.43 21.94,-29.39"/>
</g>
<!-- Node3 -->
<g id="node3" class="node">
<title>Node3</title>
<g id="a_node3"><a xlink:title=" ">
<polygon fill="white" stroke="#bfbfbf" points="12.6,-56.5 12.6,-75.5 59.6,-75.5 59.6,-56.5 12.6,-56.5"/>
<text text-anchor="middle" x="36.1" y="-63.5" font-family="Helvetica,sans-Serif" font-size="10.00">vector</text>
</a>
</g>
</g>
<!-- Node1&#45;&gt;Node3 -->
<g id="edge2" class="edge">
<title>Node1&#45;&gt;Node3</title>
<path fill="none" stroke="midnightblue" d="M65.32,-112.08C60.43,-104.53 53.27,-93.49 47.27,-84.23"/>
<polygon fill="midnightblue" stroke="midnightblue" points="50.15,-82.24 41.77,-75.75 44.27,-86.05 50.15,-82.24"/>
</g>
<!-- Node4 -->
<g id="node4" class="node">
<title>Node4</title>
<g id="a_node4"><a xlink:title=" ">
<polygon fill="white" stroke="#bfbfbf" points="109.6,-0.5 109.6,-19.5 160.6,-19.5 160.6,-0.5 109.6,-0.5"/>
<text text-anchor="middle" x="135.1" y="-7.5" font-family="Helvetica,sans-Serif" font-size="10.00">math.h</text>
</a>
</g>
</g>
<!-- Node1&#45;&gt;Node4 -->
<g id="edge3" class="edge">
<title>Node1&#45;&gt;Node4</title>
<path fill="none" stroke="midnightblue" d="M98.03,-112.36C114.82,-105.41 135.08,-93.82 145.1,-76 153.21,-61.57 148.93,-42.62 143.68,-28.92"/>
<polygon fill="midnightblue" stroke="midnightblue" points="146.85,-27.41 139.68,-19.61 140.42,-30.18 146.85,-27.41"/>
</g>
<!-- Node5 -->
<g id="node5" class="node">
<title>Node5</title>
<g id="a_node5"><a xlink:href="matrix_8h.html" target="_top" xlink:title=" ">
<polygon fill="white" stroke="black" points="78.1,-56.5 78.1,-75.5 136.1,-75.5 136.1,-56.5 78.1,-56.5"/>
<text text-anchor="middle" x="107.1" y="-63.5" font-family="Helvetica,sans-Serif" font-size="10.00">matrix.h</text>
</a>
</g>
</g>
<!-- Node1&#45;&gt;Node5 -->
<g id="edge4" class="edge">
<title>Node1&#45;&gt;Node5</title>
<path fill="none" stroke="midnightblue" d="M77.04,-112.08C82.08,-104.53 89.44,-93.49 95.61,-84.23"/>
<polygon fill="midnightblue" stroke="midnightblue" points="98.63,-86.01 101.26,-75.75 92.81,-82.13 98.63,-86.01"/>
</g>
<!-- Node5&#45;&gt;Node2 -->
<g id="edge6" class="edge">
<title>Node5&#45;&gt;Node2</title>
<path fill="none" stroke="midnightblue" d="M95.85,-56.32C85.3,-48.18 69.3,-35.84 56.66,-26.09"/>
<polygon fill="midnightblue" stroke="midnightblue" points="58.61,-23.17 48.55,-19.83 54.33,-28.71 58.61,-23.17"/>
</g>
<!-- Node5&#45;&gt;Node4 -->
<g id="edge5" class="edge">
<title>Node5&#45;&gt;Node4</title>
<path fill="none" stroke="midnightblue" d="M111.72,-56.08C115.56,-48.69 121.12,-37.95 125.86,-28.81"/>
<polygon fill="midnightblue" stroke="midnightblue" points="129.07,-30.24 130.56,-19.75 122.85,-27.02 129.07,-30.24"/>
</g>
</g>
</svg>
