<?xml version="1.0" encoding="UTF-8" standalone="no"?>
<!DOCTYPE svg PUBLIC "-//W3C//DTD SVG 1.1//EN"
 "http://www.w3.org/Graphics/SVG/1.1/DTD/svg11.dtd">
<!-- Generated by graphviz version 3.0.0 (0)
 -->
<!-- Title: src/matrix.h Pages: 1 -->
<svg width="893pt" height="196pt"
 viewBox="0.00 0.00 893.05 196.00" xmlns="http://www.w3.org/2000/svg" xmlns:xlink="http://www.w3.org/1999/xlink">
<g id="graph0" class="graph" transform="scale(1 1) rotate(0) translate(4 192)">
<title>src/matrix.h</title>
<polygon fill="white" stroke="transparent" points="-4,4 -4,-192 889.05,-192 889.05,4 -4,4"/>
<!-- Node1 -->
<g id="node1" class="node">
<title>Node1</title>
<g id="a_node1"><a xlink:title=" ">
<polygon fill="#bfbfbf" stroke="black" points="392.55,-168.5 392.55,-187.5 467.55,-187.5 467.55,-168.5 392.55,-168.5"/>
<text text-anchor="middle" x="430.05" y="-175.5" font-family="Helvetica,sans-Serif" font-size="10.00">src/matrix.h</text>
</a>
</g>
</g>
<!-- Node2 -->
<g id="node2" class="node">
<title>Node2</title>
<g id="a_node2"><a xlink:href="CGem_8cpp.html" target="_top" xlink:title=" ">
<polygon fill="white" stroke="black" points="13.05,-56.5 13.05,-75.5 97.05,-75.5 97.05,-56.5 13.05,-56.5"/>
<text text-anchor="middle" x="55.05" y="-63.5" font-family="Helvetica,sans-Serif" font-size="10.00">src/CGem.cpp</text>
</a>
</g>
</g>
<!-- Node1&#45;&gt;Node2 -->
<g id="edge1" class="edge">
<title>Node1&#45;&gt;Node2</title>
<path fill="none" stroke="midnightblue" d="M382.21,-172.71C331.09,-167.15 248.18,-155.25 180.05,-132 136.99,-117.31 90.51,-89.65 68.31,-75.63"/>
<polygon fill="midnightblue" stroke="midnightblue" points="382,-176.21 392.31,-173.78 382.73,-169.25 382,-176.21"/>
</g>
<!-- Node3 -->
<g id="node3" class="node">
<title>Node3</title>
<g id="a_node3"><a xlink:href="CGem_8h.html" target="_top" xlink:title=" ">
<polygon fill="white" stroke="black" points="205.55,-112.5 205.55,-131.5 278.55,-131.5 278.55,-112.5 205.55,-112.5"/>
<text text-anchor="middle" x="242.05" y="-119.5" font-family="Helvetica,sans-Serif" font-size="10.00">src/CGem.h</text>
</a>
</g>
</g>
<!-- Node1&#45;&gt;Node3 -->
<g id="edge2" class="edge">
<title>Node1&#45;&gt;Node3</title>
<path fill="none" stroke="midnightblue" d="M390.24,-165.57C354.78,-155.38 303.68,-140.7 271.7,-131.52"/>
<polygon fill="midnightblue" stroke="midnightblue" points="389.68,-169.05 400.26,-168.44 391.61,-162.32 389.68,-169.05"/>
</g>
<!-- Node4 -->
<g id="node4" class="node">
<title>Node4</title>
<g id="a_node4"><a xlink:href="CGemKomentare_8h.html" target="_top" xlink:title=" ">
<polygon fill="white" stroke="black" points="115.05,-56.5 115.05,-75.5 241.05,-75.5 241.05,-56.5 115.05,-56.5"/>
<text text-anchor="middle" x="178.05" y="-63.5" font-family="Helvetica,sans-Serif" font-size="10.00">src/CGemKomentare.h</text>
</a>
</g>
</g>
<!-- Node1&#45;&gt;Node4 -->
<g id="edge9" class="edge">
<title>Node1&#45;&gt;Node4</title>
<path fill="none" stroke="midnightblue" d="M382.46,-173.7C322.09,-168.55 222.63,-156.53 196.05,-132 180.04,-117.23 177.79,-89.61 177.76,-75.61"/>
<polygon fill="midnightblue" stroke="midnightblue" points="382.27,-177.19 392.52,-174.52 382.84,-170.22 382.27,-177.19"/>
</g>
<!-- Node5 -->
<g id="node5" class="node">
<title>Node5</title>
<g id="a_node5"><a xlink:href="CGemKomentare_8cpp.html" target="_top" xlink:title=" ">
<polygon fill="white" stroke="black" points="13.55,-0.5 13.55,-19.5 150.55,-19.5 150.55,-0.5 13.55,-0.5"/>
<text text-anchor="middle" x="82.05" y="-7.5" font-family="Helvetica,sans-Serif" font-size="10.00">src/CGemKomentare.cpp</text>
</a>
</g>
</g>
<!-- Node1&#45;&gt;Node5 -->
<g id="edge8" class="edge">
<title>Node1&#45;&gt;Node5</title>
<path fill="none" stroke="midnightblue" d="M382.47,-173.66C280.19,-165.31 45.29,-139.46 4.05,-76 -12.28,-50.87 27.47,-30.45 56.02,-19.57"/>
<polygon fill="midnightblue" stroke="midnightblue" points="382.28,-177.16 392.52,-174.46 382.83,-170.18 382.28,-177.16"/>
</g>
<!-- Node6 -->
<g id="node6" class="node">
<title>Node6</title>
<g id="a_node6"><a xlink:href="main_8cpp.html" target="_top" xlink:title=" ">
<polygon fill="white" stroke="black" points="329.55,-0.5 329.55,-19.5 408.55,-19.5 408.55,-0.5 329.55,-0.5"/>
<text text-anchor="middle" x="369.05" y="-7.5" font-family="Helvetica,sans-Serif" font-size="10.00">src/main.cpp</text>
</a>
</g>
</g>
<!-- Node1&#45;&gt;Node6 -->
<g id="edge24" class="edge">
<title>Node1&#45;&gt;Node6</title>
<path fill="none" stroke="midnightblue" d="M406.8,-162.76C381.47,-145.73 342.37,-114.61 326.05,-76 316.77,-54.07 340.57,-31.57 356.36,-19.65"/>
<polygon fill="midnightblue" stroke="midnightblue" points="405.16,-165.87 415.45,-168.39 408.98,-160 405.16,-165.87"/>
</g>
<!-- Node7 -->
<g id="node7" class="node">
<title>Node7</title>
<g id="a_node7"><a xlink:href="DiffMatrix_8cpp.html" target="_top" xlink:title=" ">
<polygon fill="white" stroke="black" points="335.55,-56.5 335.55,-75.5 438.55,-75.5 438.55,-56.5 335.55,-56.5"/>
<text text-anchor="middle" x="387.05" y="-63.5" font-family="Helvetica,sans-Serif" font-size="10.00">src/DiffMatrix.cpp</text>
</a>
</g>
</g>
<!-- Node1&#45;&gt;Node7 -->
<g id="edge10" class="edge">
<title>Node1&#45;&gt;Node7</title>
<path fill="none" stroke="midnightblue" d="M422.8,-159.05C419.5,-150.81 415.55,-140.92 412.05,-132 404.19,-111.97 395.17,-88.37 390.41,-75.85"/>
<polygon fill="midnightblue" stroke="midnightblue" points="419.58,-160.42 426.56,-168.39 426.07,-157.8 419.58,-160.42"/>
</g>
<!-- Node8 -->
<g id="node8" class="node">
<title>Node8</title>
<g id="a_node8"><a xlink:href="DiffMatrix_8h.html" target="_top" xlink:title=" ">
<polygon fill="white" stroke="black" points="421.05,-112.5 421.05,-131.5 513.05,-131.5 513.05,-112.5 421.05,-112.5"/>
<text text-anchor="middle" x="467.05" y="-119.5" font-family="Helvetica,sans-Serif" font-size="10.00">src/DiffMatrix.h</text>
</a>
</g>
</g>
<!-- Node1&#45;&gt;Node8 -->
<g id="edge11" class="edge">
<title>Node1&#45;&gt;Node8</title>
<path fill="none" stroke="midnightblue" d="M441.99,-159.57C448.36,-150.27 455.91,-139.25 461.05,-131.75"/>
<polygon fill="midnightblue" stroke="midnightblue" points="438.92,-157.86 436.16,-168.08 444.7,-161.81 438.92,-157.86"/>
</g>
<!-- Node9 -->
<g id="node9" class="node">
<title>Node9</title>
<g id="a_node9"><a xlink:href="MultMatrix_8h.html" target="_top" xlink:title=" ">
<polygon fill="white" stroke="black" points="495.05,-56.5 495.05,-75.5 591.05,-75.5 591.05,-56.5 495.05,-56.5"/>
<text text-anchor="middle" x="543.05" y="-63.5" font-family="Helvetica,sans-Serif" font-size="10.00">src/MultMatrix.h</text>
</a>
</g>
</g>
<!-- Node1&#45;&gt;Node9 -->
<g id="edge21" class="edge">
<title>Node1&#45;&gt;Node9</title>
<path fill="none" stroke="midnightblue" d="M471.75,-164.79C489.4,-157.74 508.88,-147.19 522.05,-132 536.34,-115.51 540.93,-89.15 542.39,-75.62"/>
<polygon fill="midnightblue" stroke="midnightblue" points="470.33,-161.58 462.18,-168.35 472.77,-168.14 470.33,-161.58"/>
</g>
<!-- Node10 -->
<g id="node10" class="node">
<title>Node10</title>
<g id="a_node10"><a xlink:href="MultMatrix_8cpp.html" target="_top" xlink:title=" ">
<polygon fill="white" stroke="black" points="515.55,-0.5 515.55,-19.5 622.55,-19.5 622.55,-0.5 515.55,-0.5"/>
<text text-anchor="middle" x="569.05" y="-7.5" font-family="Helvetica,sans-Serif" font-size="10.00">src/MultMatrix.cpp</text>
</a>
</g>
</g>
<!-- Node1&#45;&gt;Node10 -->
<g id="edge20" class="edge">
<title>Node1&#45;&gt;Node10</title>
<path fill="none" stroke="midnightblue" d="M477.73,-176.1C543.96,-171.94 661.53,-153.37 714.05,-76 739.3,-38.8 673.61,-22.62 622.55,-15.77"/>
<polygon fill="midnightblue" stroke="midnightblue" points="477.36,-172.61 467.57,-176.65 477.74,-179.6 477.36,-172.61"/>
</g>
<!-- Node11 -->
<g id="node11" class="node">
<title>Node11</title>
<g id="a_node11"><a xlink:href="SumMatrix_8h.html" target="_top" xlink:title=" ">
<polygon fill="white" stroke="black" points="609.05,-56.5 609.05,-75.5 705.05,-75.5 705.05,-56.5 609.05,-56.5"/>
<text text-anchor="middle" x="657.05" y="-63.5" font-family="Helvetica,sans-Serif" font-size="10.00">src/SumMatrix.h</text>
</a>
</g>
</g>
<!-- Node1&#45;&gt;Node11 -->
<g id="edge23" class="edge">
<title>Node1&#45;&gt;Node11</title>
<path fill="none" stroke="midnightblue" d="M463.5,-164.89C486.02,-156.41 516.22,-144.42 542.05,-132 579.66,-113.91 621.92,-88.69 643.2,-75.62"/>
<polygon fill="midnightblue" stroke="midnightblue" points="462.19,-161.64 454.04,-168.41 464.63,-168.2 462.19,-161.64"/>
</g>
<!-- Node12 -->
<g id="node12" class="node">
<title>Node12</title>
<g id="a_node12"><a xlink:href="SumMatrix_8cpp.html" target="_top" xlink:title=" ">
<polygon fill="white" stroke="black" points="691.55,-0.5 691.55,-19.5 798.55,-19.5 798.55,-0.5 691.55,-0.5"/>
<text text-anchor="middle" x="745.05" y="-7.5" font-family="Helvetica,sans-Serif" font-size="10.00">src/SumMatrix.cpp</text>
</a>
</g>
</g>
<!-- Node1&#45;&gt;Node12 -->
<g id="edge22" class="edge">
<title>Node1&#45;&gt;Node12</title>
<path fill="none" stroke="midnightblue" d="M478.1,-177.12C530.35,-175.31 614.85,-166.6 678.05,-132 707.84,-115.69 714.13,-106.01 730.05,-76 739.81,-57.58 743.26,-32.93 744.45,-19.92"/>
<polygon fill="midnightblue" stroke="midnightblue" points="477.68,-173.63 467.77,-177.4 477.87,-180.63 477.68,-173.63"/>
</g>
<!-- Node13 -->
<g id="node13" class="node">
<title>Node13</title>
<g id="a_node13"><a xlink:href="matrix_8cpp.html" target="_top" xlink:title=" ">
<polygon fill="white" stroke="black" points="799.05,-112.5 799.05,-131.5 885.05,-131.5 885.05,-112.5 799.05,-112.5"/>
<text text-anchor="middle" x="842.05" y="-119.5" font-family="Helvetica,sans-Serif" font-size="10.00">src/matrix.cpp</text>
</a>
</g>
</g>
<!-- Node1&#45;&gt;Node13 -->
<g id="edge25" class="edge">
<title>Node1&#45;&gt;Node13</title>
<path fill="none" stroke="midnightblue" d="M477.67,-171.43C545.86,-163.35 675.21,-147.63 785.05,-132 789.51,-131.36 794.16,-130.67 798.81,-129.97"/>
<polygon fill="midnightblue" stroke="midnightblue" points="477.19,-167.96 467.67,-172.61 478.01,-174.92 477.19,-167.96"/>
</g>
<!-- Node3&#45;&gt;Node2 -->
<g id="edge3" class="edge">
<title>Node3&#45;&gt;Node2</title>
<path fill="none" stroke="midnightblue" d="M202.46,-109.57C167.18,-99.38 116.35,-84.7 84.54,-75.52"/>
<polygon fill="midnightblue" stroke="midnightblue" points="201.84,-113.03 212.42,-112.44 203.78,-106.31 201.84,-113.03"/>
</g>
<!-- Node3&#45;&gt;Node4 -->
<g id="edge4" class="edge">
<title>Node3&#45;&gt;Node4</title>
<path fill="none" stroke="midnightblue" d="M224.05,-105.82C212.59,-96.15 198.13,-83.95 188.52,-75.83"/>
<polygon fill="midnightblue" stroke="midnightblue" points="221.86,-108.55 231.76,-112.32 226.38,-103.2 221.86,-108.55"/>
</g>
<!-- Node3&#45;&gt;Node6 -->
<g id="edge7" class="edge">
<title>Node3&#45;&gt;Node6</title>
<path fill="none" stroke="midnightblue" d="M253.12,-103.49C262.56,-89.5 277.1,-69.99 293.05,-56 310.57,-40.63 334.08,-27.65 350.28,-19.64"/>
<polygon fill="midnightblue" stroke="midnightblue" points="250,-101.88 247.45,-112.16 255.85,-105.71 250,-101.88"/>
</g>
<!-- Node4&#45;&gt;Node5 -->
<g id="edge5" class="edge">
<title>Node4&#45;&gt;Node5</title>
<path fill="none" stroke="midnightblue" d="M153.47,-51.18C135.81,-41.24 112.53,-28.15 97.43,-19.65"/>
<polygon fill="midnightblue" stroke="midnightblue" points="152.19,-54.47 162.62,-56.32 155.62,-48.37 152.19,-54.47"/>
</g>
<!-- Node4&#45;&gt;Node6 -->
<g id="edge6" class="edge">
<title>Node4&#45;&gt;Node6</title>
<path fill="none" stroke="midnightblue" d="M218.02,-53.7C254.07,-43.51 306.29,-28.74 338.92,-19.52"/>
<polygon fill="midnightblue" stroke="midnightblue" points="216.98,-50.35 208.31,-56.44 218.89,-57.09 216.98,-50.35"/>
</g>
<!-- Node8&#45;&gt;Node6 -->
<g id="edge19" class="edge">
<title>Node8&#45;&gt;Node6</title>
<path fill="none" stroke="midnightblue" d="M465.05,-102.54C462.73,-88.51 457.73,-69.4 447.05,-56 433.31,-38.76 411.04,-26.86 393.81,-19.65"/>
<polygon fill="midnightblue" stroke="midnightblue" points="461.59,-103.06 466.4,-112.5 468.53,-102.12 461.59,-103.06"/>
</g>
<!-- Node8&#45;&gt;Node7 -->
<g id="edge12" class="edge">
<title>Node8&#45;&gt;Node7</title>
<path fill="none" stroke="midnightblue" d="M445.75,-106.62C431.13,-96.76 412.22,-83.99 399.87,-75.65"/>
<polygon fill="midnightblue" stroke="midnightblue" points="443.95,-109.63 454.19,-112.32 447.86,-103.83 443.95,-109.63"/>
</g>
<!-- Node8&#45;&gt;Node9 -->
<g id="edge13" class="edge">
<title>Node8&#45;&gt;Node9</title>
<path fill="none" stroke="midnightblue" d="M487.62,-106.38C501.36,-96.62 518.97,-84.11 530.61,-75.83"/>
<polygon fill="midnightblue" stroke="midnightblue" points="485.38,-103.68 479.26,-112.32 489.44,-109.38 485.38,-103.68"/>
</g>
<!-- Node8&#45;&gt;Node11 -->
<g id="edge16" class="edge">
<title>Node8&#45;&gt;Node11</title>
<path fill="none" stroke="midnightblue" d="M506.81,-109.7C542.67,-99.51 594.62,-84.74 627.08,-75.52"/>
<polygon fill="midnightblue" stroke="midnightblue" points="505.81,-106.34 497.15,-112.44 507.73,-113.08 505.81,-106.34"/>
</g>
<!-- Node9&#45;&gt;Node6 -->
<g id="edge15" class="edge">
<title>Node9&#45;&gt;Node6</title>
<path fill="none" stroke="midnightblue" d="M505.79,-53.44C472.98,-43.26 425.96,-28.66 396.49,-19.52"/>
<polygon fill="midnightblue" stroke="midnightblue" points="504.89,-56.82 515.48,-56.44 506.96,-50.14 504.89,-56.82"/>
</g>
<!-- Node9&#45;&gt;Node10 -->
<g id="edge14" class="edge">
<title>Node9&#45;&gt;Node10</title>
<path fill="none" stroke="midnightblue" d="M551.72,-46.98C556.13,-37.82 561.3,-27.09 564.83,-19.75"/>
<polygon fill="midnightblue" stroke="midnightblue" points="548.52,-45.55 547.34,-56.08 554.83,-48.59 548.52,-45.55"/>
</g>
<!-- Node11&#45;&gt;Node6 -->
<g id="edge18" class="edge">
<title>Node11&#45;&gt;Node6</title>
<path fill="none" stroke="midnightblue" d="M601.58,-54.6C545.11,-44.01 458.96,-27.86 408.9,-18.47"/>
<polygon fill="midnightblue" stroke="midnightblue" points="600.94,-58.04 611.41,-56.44 602.23,-51.16 600.94,-58.04"/>
</g>
<!-- Node11&#45;&gt;Node12 -->
<g id="edge17" class="edge">
<title>Node11&#45;&gt;Node12</title>
<path fill="none" stroke="midnightblue" d="M680.02,-50.9C696.16,-41 717.23,-28.07 730.94,-19.65"/>
<polygon fill="midnightblue" stroke="midnightblue" points="677.88,-48.11 671.18,-56.32 681.54,-54.08 677.88,-48.11"/>
</g>
</g>
</svg>
