<?xml version="1.0" encoding="UTF-8" standalone="no"?>
<!DOCTYPE svg PUBLIC "-//W3C//DTD SVG 1.1//EN"
 "http://www.w3.org/Graphics/SVG/1.1/DTD/svg11.dtd">
<!-- Generated by graphviz version 3.0.0 (0)
 -->
<!-- Title: src/MultMatrix.cpp Pages: 1 -->
<svg width="155pt" height="252pt"
 viewBox="0.00 0.00 155.00 252.00" xmlns="http://www.w3.org/2000/svg" xmlns:xlink="http://www.w3.org/1999/xlink">
<g id="graph0" class="graph" transform="scale(1 1) rotate(0) translate(4 248)">
<title>src/MultMatrix.cpp</title>
<polygon fill="white" stroke="transparent" points="-4,4 -4,-248 151,-248 151,4 -4,4"/>
<!-- Node1 -->
<g id="node1" class="node">
<title>Node1</title>
<g id="a_node1"><a xlink:title=" ">
<polygon fill="#bfbfbf" stroke="black" points="40,-224.5 40,-243.5 147,-243.5 147,-224.5 40,-224.5"/>
<text text-anchor="middle" x="93.5" y="-231.5" font-family="Helvetica,sans-Serif" font-size="10.00">src/MultMatrix.cpp</text>
</a>
</g>
</g>
<!-- Node2 -->
<g id="node2" class="node">
<title>Node2</title>
<g id="a_node2"><a xlink:href="MultMatrix_8h.html" target="_top" xlink:title=" ">
<polygon fill="white" stroke="black" points="20,-168.5 20,-187.5 99,-187.5 99,-168.5 20,-168.5"/>
<text text-anchor="middle" x="59.5" y="-175.5" font-family="Helvetica,sans-Serif" font-size="10.00">MultMatrix.h</text>
</a>
</g>
</g>
<!-- Node1&#45;&gt;Node2 -->
<g id="edge1" class="edge">
<title>Node1&#45;&gt;Node2</title>
<path fill="none" stroke="midnightblue" d="M87.89,-224.08C83.13,-216.53 76.18,-205.49 70.35,-196.23"/>
<polygon fill="midnightblue" stroke="midnightblue" points="73.3,-194.35 65.01,-187.75 67.38,-198.08 73.3,-194.35"/>
</g>
<!-- Node3 -->
<g id="node3" class="node">
<title>Node3</title>
<g id="a_node3"><a xlink:href="matrix_8h.html" target="_top" xlink:title=" ">
<polygon fill="white" stroke="black" points="33.5,-56.5 33.5,-75.5 91.5,-75.5 91.5,-56.5 33.5,-56.5"/>
<text text-anchor="middle" x="62.5" y="-63.5" font-family="Helvetica,sans-Serif" font-size="10.00">matrix.h</text>
</a>
</g>
</g>
<!-- Node1&#45;&gt;Node3 -->
<g id="edge7" class="edge">
<title>Node1&#45;&gt;Node3</title>
<path fill="none" stroke="midnightblue" d="M97.43,-224.38C106.16,-203.96 125.08,-151.41 108.5,-112 103.47,-100.05 93.56,-89.69 84.21,-81.93"/>
<polygon fill="midnightblue" stroke="midnightblue" points="86.34,-79.15 76.29,-75.81 82.06,-84.69 86.34,-79.15"/>
</g>
<!-- Node2&#45;&gt;Node3 -->
<g id="edge2" class="edge">
<title>Node2&#45;&gt;Node3</title>
<path fill="none" stroke="midnightblue" d="M46.82,-168.36C31.05,-156.44 7.27,-133.95 16.5,-112 21.53,-100.05 31.44,-89.69 40.79,-81.93"/>
<polygon fill="midnightblue" stroke="midnightblue" points="42.94,-84.69 48.71,-75.81 38.66,-79.15 42.94,-84.69"/>
</g>
<!-- Node6 -->
<g id="node6" class="node">
<title>Node6</title>
<g id="a_node6"><a xlink:href="DiffMatrix_8h.html" target="_top" xlink:title=" ">
<polygon fill="white" stroke="black" points="25.5,-112.5 25.5,-131.5 99.5,-131.5 99.5,-112.5 25.5,-112.5"/>
<text text-anchor="middle" x="62.5" y="-119.5" font-family="Helvetica,sans-Serif" font-size="10.00">DiffMatrix.h</text>
</a>
</g>
</g>
<!-- Node2&#45;&gt;Node6 -->
<g id="edge5" class="edge">
<title>Node2&#45;&gt;Node6</title>
<path fill="none" stroke="midnightblue" d="M60,-168.08C60.39,-161.01 60.95,-150.86 61.45,-141.99"/>
<polygon fill="midnightblue" stroke="midnightblue" points="64.95,-141.93 62.01,-131.75 57.96,-141.54 64.95,-141.93"/>
</g>
<!-- Node4 -->
<g id="node4" class="node">
<title>Node4</title>
<g id="a_node4"><a xlink:title=" ">
<polygon fill="white" stroke="#bfbfbf" points="0,-0.5 0,-19.5 51,-19.5 51,-0.5 0,-0.5"/>
<text text-anchor="middle" x="25.5" y="-7.5" font-family="Helvetica,sans-Serif" font-size="10.00">math.h</text>
</a>
</g>
</g>
<!-- Node3&#45;&gt;Node4 -->
<g id="edge3" class="edge">
<title>Node3&#45;&gt;Node4</title>
<path fill="none" stroke="midnightblue" d="M56.39,-56.08C51.22,-48.53 43.65,-37.49 37.31,-28.23"/>
<polygon fill="midnightblue" stroke="midnightblue" points="40.04,-26.02 31.5,-19.75 34.26,-29.98 40.04,-26.02"/>
</g>
<!-- Node5 -->
<g id="node5" class="node">
<title>Node5</title>
<g id="a_node5"><a xlink:title=" ">
<polygon fill="white" stroke="#bfbfbf" points="69.5,-0.5 69.5,-19.5 129.5,-19.5 129.5,-0.5 69.5,-0.5"/>
<text text-anchor="middle" x="99.5" y="-7.5" font-family="Helvetica,sans-Serif" font-size="10.00">iostream</text>
</a>
</g>
</g>
<!-- Node3&#45;&gt;Node5 -->
<g id="edge4" class="edge">
<title>Node3&#45;&gt;Node5</title>
<path fill="none" stroke="midnightblue" d="M68.61,-56.08C73.78,-48.53 81.35,-37.49 87.69,-28.23"/>
<polygon fill="midnightblue" stroke="midnightblue" points="90.74,-29.98 93.5,-19.75 84.96,-26.02 90.74,-29.98"/>
</g>
<!-- Node6&#45;&gt;Node3 -->
<g id="edge6" class="edge">
<title>Node6&#45;&gt;Node3</title>
<path fill="none" stroke="midnightblue" d="M62.5,-112.08C62.5,-105.01 62.5,-94.86 62.5,-85.99"/>
<polygon fill="midnightblue" stroke="midnightblue" points="66,-85.75 62.5,-75.75 59,-85.75 66,-85.75"/>
</g>
</g>
</svg>
