<?xml version="1.0" encoding="UTF-8" standalone="no"?>
<!DOCTYPE svg PUBLIC "-//W3C//DTD SVG 1.1//EN"
 "http://www.w3.org/Graphics/SVG/1.1/DTD/svg11.dtd">
<!-- Generated by graphviz version 3.0.0 (0)
 -->
<!-- Title: src/SumMatrix.h Pages: 1 -->
<svg width="141pt" height="196pt"
 viewBox="0.00 0.00 140.50 196.00" xmlns="http://www.w3.org/2000/svg" xmlns:xlink="http://www.w3.org/1999/xlink">
<g id="graph0" class="graph" transform="scale(1 1) rotate(0) translate(4 192)">
<title>src/SumMatrix.h</title>
<polygon fill="white" stroke="transparent" points="-4,4 -4,-192 136.5,-192 136.5,4 -4,4"/>
<!-- Node1 -->
<g id="node1" class="node">
<title>Node1</title>
<g id="a_node1"><a xlink:title=" ">
<polygon fill="#bfbfbf" stroke="black" points="14.5,-168.5 14.5,-187.5 110.5,-187.5 110.5,-168.5 14.5,-168.5"/>
<text text-anchor="middle" x="62.5" y="-175.5" font-family="Helvetica,sans-Serif" font-size="10.00">src/SumMatrix.h</text>
</a>
</g>
</g>
<!-- Node2 -->
<g id="node2" class="node">
<title>Node2</title>
<g id="a_node2"><a xlink:href="matrix_8h.html" target="_top" xlink:title=" ">
<polygon fill="white" stroke="black" points="33.5,-56.5 33.5,-75.5 91.5,-75.5 91.5,-56.5 33.5,-56.5"/>
<text text-anchor="middle" x="62.5" y="-63.5" font-family="Helvetica,sans-Serif" font-size="10.00">matrix.h</text>
</a>
</g>
</g>
<!-- Node1&#45;&gt;Node2 -->
<g id="edge1" class="edge">
<title>Node1&#45;&gt;Node2</title>
<path fill="none" stroke="midnightblue" d="M59.16,-168.2C55.95,-159.24 51.32,-144.88 49.5,-132 47.26,-116.15 51.29,-98.34 55.44,-85.38"/>
<polygon fill="midnightblue" stroke="midnightblue" points="58.8,-86.37 58.82,-75.78 52.19,-84.05 58.8,-86.37"/>
</g>
<!-- Node5 -->
<g id="node5" class="node">
<title>Node5</title>
<g id="a_node5"><a xlink:href="DiffMatrix_8h.html" target="_top" xlink:title=" ">
<polygon fill="white" stroke="black" points="58.5,-112.5 58.5,-131.5 132.5,-131.5 132.5,-112.5 58.5,-112.5"/>
<text text-anchor="middle" x="95.5" y="-119.5" font-family="Helvetica,sans-Serif" font-size="10.00">DiffMatrix.h</text>
</a>
</g>
</g>
<!-- Node1&#45;&gt;Node5 -->
<g id="edge4" class="edge">
<title>Node1&#45;&gt;Node5</title>
<path fill="none" stroke="midnightblue" d="M67.95,-168.08C72.51,-160.61 79.17,-149.72 84.79,-140.52"/>
<polygon fill="midnightblue" stroke="midnightblue" points="87.92,-142.11 90.15,-131.75 81.95,-138.46 87.92,-142.11"/>
</g>
<!-- Node3 -->
<g id="node3" class="node">
<title>Node3</title>
<g id="a_node3"><a xlink:title=" ">
<polygon fill="white" stroke="#bfbfbf" points="0,-0.5 0,-19.5 51,-19.5 51,-0.5 0,-0.5"/>
<text text-anchor="middle" x="25.5" y="-7.5" font-family="Helvetica,sans-Serif" font-size="10.00">math.h</text>
</a>
</g>
</g>
<!-- Node2&#45;&gt;Node3 -->
<g id="edge2" class="edge">
<title>Node2&#45;&gt;Node3</title>
<path fill="none" stroke="midnightblue" d="M56.39,-56.08C51.22,-48.53 43.65,-37.49 37.31,-28.23"/>
<polygon fill="midnightblue" stroke="midnightblue" points="40.04,-26.02 31.5,-19.75 34.26,-29.98 40.04,-26.02"/>
</g>
<!-- Node4 -->
<g id="node4" class="node">
<title>Node4</title>
<g id="a_node4"><a xlink:title=" ">
<polygon fill="white" stroke="#bfbfbf" points="69.5,-0.5 69.5,-19.5 129.5,-19.5 129.5,-0.5 69.5,-0.5"/>
<text text-anchor="middle" x="99.5" y="-7.5" font-family="Helvetica,sans-Serif" font-size="10.00">iostream</text>
</a>
</g>
</g>
<!-- Node2&#45;&gt;Node4 -->
<g id="edge3" class="edge">
<title>Node2&#45;&gt;Node4</title>
<path fill="none" stroke="midnightblue" d="M68.61,-56.08C73.78,-48.53 81.35,-37.49 87.69,-28.23"/>
<polygon fill="midnightblue" stroke="midnightblue" points="90.74,-29.98 93.5,-19.75 84.96,-26.02 90.74,-29.98"/>
</g>
<!-- Node5&#45;&gt;Node2 -->
<g id="edge5" class="edge">
<title>Node5&#45;&gt;Node2</title>
<path fill="none" stroke="midnightblue" d="M90.05,-112.08C85.49,-104.61 78.83,-93.72 73.21,-84.52"/>
<polygon fill="midnightblue" stroke="midnightblue" points="76.05,-82.46 67.85,-75.75 70.08,-86.11 76.05,-82.46"/>
</g>
</g>
</svg>
